<?xml version="1.0" encoding="utf-8" standalone="no"?>
<!DOCTYPE svg PUBLIC "-//W3C//DTD SVG 1.1//EN"
  "http://www.w3.org/Graphics/SVG/1.1/DTD/svg11.dtd">
<!-- Created with matplotlib (http://matplotlib.org/) -->
<svg height="184.15625pt" version="1.1" viewBox="0 0 248.620313 184.15625" width="248.620313pt" xmlns="http://www.w3.org/2000/svg" xmlns:xlink="http://www.w3.org/1999/xlink">
 <defs>
  <style type="text/css">
*{stroke-linecap:butt;stroke-linejoin:round;}
  </style>
 </defs>
 <g id="figure_1">
  <g id="patch_1">
   <path d="M 0 184.15625 
L 248.620313 184.15625 
L 248.620313 -0 
L 0 -0 
z
" style="fill:none;"/>
  </g>
  <g id="axes_1">
   <g id="patch_2">
    <path d="M 42.620312 146.6 
L 237.920313 146.6 
L 237.920313 10.7 
L 42.620312 10.7 
z
" style="fill:#ffffff;"/>
   </g>
   <g id="matplotlib.axis_1">
    <g id="xtick_1">
     <g id="line2d_1">
      <defs>
       <path d="M 0 0 
L 0 3.5 
" id="mdc0b5defb6" style="stroke:#000000;stroke-width:0.8;"/>
      </defs>
      <g>
       <use style="stroke:#000000;stroke-width:0.8;" x="88.39375" xlink:href="#mdc0b5defb6" y="146.6"/>
      </g>
     </g>
     <g id="text_1">
      <!-- −4 -->
      <defs>
       <path d="M 10.59375 35.5 
L 73.1875 35.5 
L 73.1875 27.203125 
L 10.59375 27.203125 
z
" id="DejaVuSans-2212"/>
       <path d="M 37.796875 64.3125 
L 12.890625 25.390625 
L 37.796875 25.390625 
z
M 35.203125 72.90625 
L 47.609375 72.90625 
L 47.609375 25.390625 
L 58.015625 25.390625 
L 58.015625 17.1875 
L 47.609375 17.1875 
L 47.609375 0 
L 37.796875 0 
L 37.796875 17.1875 
L 4.890625 17.1875 
L 4.890625 26.703125 
z
" id="DejaVuSans-34"/>
      </defs>
      <g transform="translate(81.022656 161.198437)scale(0.1 -0.1)">
       <use xlink:href="#DejaVuSans-2212"/>
       <use x="83.789062" xlink:href="#DejaVuSans-34"/>
      </g>
     </g>
    </g>
    <g id="xtick_2">
     <g id="line2d_2">
      <g>
       <use style="stroke:#000000;stroke-width:0.8;" x="149.425" xlink:href="#mdc0b5defb6" y="146.6"/>
      </g>
     </g>
     <g id="text_2">
      <!-- −2 -->
      <defs>
       <path d="M 19.1875 8.296875 
L 53.609375 8.296875 
L 53.609375 0 
L 7.328125 0 
L 7.328125 8.296875 
Q 12.9375 14.109375 22.625 23.890625 
Q 32.328125 33.6875 34.8125 36.53125 
Q 39.546875 41.84375 41.421875 45.53125 
Q 43.3125 49.21875 43.3125 52.78125 
Q 43.3125 58.59375 39.234375 62.25 
Q 35.15625 65.921875 28.609375 65.921875 
Q 23.96875 65.921875 18.8125 64.3125 
Q 13.671875 62.703125 7.8125 59.421875 
L 7.8125 69.390625 
Q 13.765625 71.78125 18.9375 73 
Q 24.125 74.21875 28.421875 74.21875 
Q 39.75 74.21875 46.484375 68.546875 
Q 53.21875 62.890625 53.21875 53.421875 
Q 53.21875 48.921875 51.53125 44.890625 
Q 49.859375 40.875 45.40625 35.40625 
Q 44.1875 33.984375 37.640625 27.21875 
Q 31.109375 20.453125 19.1875 8.296875 
z
" id="DejaVuSans-32"/>
      </defs>
      <g transform="translate(142.053906 161.198437)scale(0.1 -0.1)">
       <use xlink:href="#DejaVuSans-2212"/>
       <use x="83.789062" xlink:href="#DejaVuSans-32"/>
      </g>
     </g>
    </g>
    <g id="xtick_3">
     <g id="line2d_3">
      <g>
       <use style="stroke:#000000;stroke-width:0.8;" x="210.45625" xlink:href="#mdc0b5defb6" y="146.6"/>
      </g>
     </g>
     <g id="text_3">
      <!-- 0 -->
      <defs>
       <path d="M 31.78125 66.40625 
Q 24.171875 66.40625 20.328125 58.90625 
Q 16.5 51.421875 16.5 36.375 
Q 16.5 21.390625 20.328125 13.890625 
Q 24.171875 6.390625 31.78125 6.390625 
Q 39.453125 6.390625 43.28125 13.890625 
Q 47.125 21.390625 47.125 36.375 
Q 47.125 51.421875 43.28125 58.90625 
Q 39.453125 66.40625 31.78125 66.40625 
z
M 31.78125 74.21875 
Q 44.046875 74.21875 50.515625 64.515625 
Q 56.984375 54.828125 56.984375 36.375 
Q 56.984375 17.96875 50.515625 8.265625 
Q 44.046875 -1.421875 31.78125 -1.421875 
Q 19.53125 -1.421875 13.0625 8.265625 
Q 6.59375 17.96875 6.59375 36.375 
Q 6.59375 54.828125 13.0625 64.515625 
Q 19.53125 74.21875 31.78125 74.21875 
z
" id="DejaVuSans-30"/>
      </defs>
      <g transform="translate(207.275 161.198437)scale(0.1 -0.1)">
       <use xlink:href="#DejaVuSans-30"/>
      </g>
     </g>
    </g>
    <g id="text_4">
     <!-- x1 -->
     <defs>
      <path d="M 54.890625 54.6875 
L 35.109375 28.078125 
L 55.90625 0 
L 45.3125 0 
L 29.390625 21.484375 
L 13.484375 0 
L 2.875 0 
L 24.125 28.609375 
L 4.6875 54.6875 
L 15.28125 54.6875 
L 29.78125 35.203125 
L 44.28125 54.6875 
z
" id="DejaVuSans-78"/>
      <path d="M 12.40625 8.296875 
L 28.515625 8.296875 
L 28.515625 63.921875 
L 10.984375 60.40625 
L 10.984375 69.390625 
L 28.421875 72.90625 
L 38.28125 72.90625 
L 38.28125 8.296875 
L 54.390625 8.296875 
L 54.390625 0 
L 12.40625 0 
z
" id="DejaVuSans-31"/>
     </defs>
     <g transform="translate(134.129687 174.876562)scale(0.1 -0.1)">
      <use xlink:href="#DejaVuSans-78"/>
      <use x="59.179688" xlink:href="#DejaVuSans-31"/>
     </g>
    </g>
   </g>
   <g id="matplotlib.axis_2">
    <g id="ytick_1">
     <g id="line2d_4">
      <defs>
       <path d="M 0 0 
L -3.5 0 
" id="m562efcbbf1" style="stroke:#000000;stroke-width:0.8;"/>
      </defs>
      <g>
       <use style="stroke:#000000;stroke-width:0.8;" x="42.620312" xlink:href="#m562efcbbf1" y="146.6"/>
      </g>
     </g>
     <g id="text_5">
      <!-- −3 -->
      <defs>
       <path d="M 40.578125 39.3125 
Q 47.65625 37.796875 51.625 33 
Q 55.609375 28.21875 55.609375 21.1875 
Q 55.609375 10.40625 48.1875 4.484375 
Q 40.765625 -1.421875 27.09375 -1.421875 
Q 22.515625 -1.421875 17.65625 -0.515625 
Q 12.796875 0.390625 7.625 2.203125 
L 7.625 11.71875 
Q 11.71875 9.328125 16.59375 8.109375 
Q 21.484375 6.890625 26.8125 6.890625 
Q 36.078125 6.890625 40.9375 10.546875 
Q 45.796875 14.203125 45.796875 21.1875 
Q 45.796875 27.640625 41.28125 31.265625 
Q 36.765625 34.90625 28.71875 34.90625 
L 20.21875 34.90625 
L 20.21875 43.015625 
L 29.109375 43.015625 
Q 36.375 43.015625 40.234375 45.921875 
Q 44.09375 48.828125 44.09375 54.296875 
Q 44.09375 59.90625 40.109375 62.90625 
Q 36.140625 65.921875 28.71875 65.921875 
Q 24.65625 65.921875 20.015625 65.03125 
Q 15.375 64.15625 9.8125 62.3125 
L 9.8125 71.09375 
Q 15.4375 72.65625 20.34375 73.4375 
Q 25.25 74.21875 29.59375 74.21875 
Q 40.828125 74.21875 47.359375 69.109375 
Q 53.90625 64.015625 53.90625 55.328125 
Q 53.90625 49.265625 50.4375 45.09375 
Q 46.96875 40.921875 40.578125 39.3125 
z
" id="DejaVuSans-33"/>
      </defs>
      <g transform="translate(20.878125 150.399219)scale(0.1 -0.1)">
       <use xlink:href="#DejaVuSans-2212"/>
       <use x="83.789062" xlink:href="#DejaVuSans-33"/>
      </g>
     </g>
    </g>
    <g id="ytick_2">
     <g id="line2d_5">
      <g>
       <use style="stroke:#000000;stroke-width:0.8;" x="42.620312" xlink:href="#m562efcbbf1" y="111.753846"/>
      </g>
     </g>
     <g id="text_6">
      <!-- −2 -->
      <g transform="translate(20.878125 115.553065)scale(0.1 -0.1)">
       <use xlink:href="#DejaVuSans-2212"/>
       <use x="83.789062" xlink:href="#DejaVuSans-32"/>
      </g>
     </g>
    </g>
    <g id="ytick_3">
     <g id="line2d_6">
      <g>
       <use style="stroke:#000000;stroke-width:0.8;" x="42.620312" xlink:href="#m562efcbbf1" y="76.907692"/>
      </g>
     </g>
     <g id="text_7">
      <!-- −1 -->
      <g transform="translate(20.878125 80.706911)scale(0.1 -0.1)">
       <use xlink:href="#DejaVuSans-2212"/>
       <use x="83.789062" xlink:href="#DejaVuSans-31"/>
      </g>
     </g>
    </g>
    <g id="ytick_4">
     <g id="line2d_7">
      <g>
       <use style="stroke:#000000;stroke-width:0.8;" x="42.620312" xlink:href="#m562efcbbf1" y="42.061538"/>
      </g>
     </g>
     <g id="text_8">
      <!-- 0 -->
      <g transform="translate(29.257812 45.860757)scale(0.1 -0.1)">
       <use xlink:href="#DejaVuSans-30"/>
      </g>
     </g>
    </g>
    <g id="text_9">
     <!-- x2 -->
     <g transform="translate(14.798437 84.790625)rotate(-90)scale(0.1 -0.1)">
      <use xlink:href="#DejaVuSans-78"/>
      <use x="59.179688" xlink:href="#DejaVuSans-32"/>
     </g>
    </g>
   </g>
   <g id="LineCollection_1">
    <path clip-path="url(#p6747059b76)" d="M 237.920313 84.148723 
L 234.86875 84.2672 
L 231.817188 84.371738 
L 228.765625 84.462338 
L 225.714063 84.539 
L 222.6625 84.601723 
L 219.610938 84.650508 
L 216.559375 84.685354 
L 213.507813 84.706262 
L 210.45625 84.713231 
L 207.404688 84.706262 
L 204.353125 84.685354 
L 201.301563 84.650508 
L 198.25 84.601723 
L 195.198438 84.539 
L 192.146875 84.462338 
L 189.095313 84.371738 
L 186.04375 84.2672 
L 182.992188 84.148723 
L 179.940625 84.016308 
L 177.034375 83.876923 
L 176.889063 83.869348 
L 173.8375 83.695117 
L 170.785938 83.505736 
L 167.734375 83.301204 
L 164.682813 83.081522 
L 161.63125 82.846689 
L 158.579688 82.596706 
L 155.528125 82.331572 
L 152.476563 82.051288 
L 149.425 81.755853 
L 146.373438 81.445268 
L 143.321875 81.119532 
L 140.270313 80.778645 
L 137.21875 80.422609 
L 136.969643 80.392308 
L 134.167188 80.018956 
L 131.115625 79.595824 
L 128.064063 79.156099 
L 125.0125 78.69978 
L 121.960938 78.226868 
L 118.909375 77.737363 
L 115.857813 77.231264 
L 113.96875 76.907692 
L 112.80625 76.687611 
L 109.754688 76.091559 
L 106.703125 75.477166 
L 103.651563 74.844433 
L 100.6 74.19336 
L 97.548438 73.523947 
L 97.100875 73.423077 
L 94.496875 72.767149 
L 91.445313 71.977986 
L 88.39375 71.168326 
L 85.342188 70.338167 
L 83.908321 69.938462 
L 82.290625 69.427385 
L 79.239063 68.440077 
L 76.1875 67.429538 
L 73.307374 66.453846 
L 73.135938 66.386834 
L 70.084375 65.167219 
L 67.032813 63.920799 
L 64.752171 62.969231 
L 63.98125 62.589091 
L 60.929688 61.052692 
L 57.878125 59.484615 
L 57.878125 59.484615 
L 54.826563 57.529359 
L 52.486044 56 
L 51.775 55.402637 
L 48.723438 52.789176 
L 48.409725 52.515385 
L 45.671875 49.170154 
L 45.559891 49.030769 
L 43.880132 45.546154 
L 43.320212 42.061538 
L 43.880132 38.576923 
L 45.559891 35.092308 
L 45.671875 34.952923 
L 48.409725 31.607692 
L 48.723438 31.333901 
L 51.775 28.72044 
L 52.486044 28.123077 
L 54.826563 26.593718 
L 57.878125 24.638462 
L 57.878125 24.638462 
L 60.929688 23.070385 
L 63.98125 21.533986 
L 64.752171 21.153846 
L 67.032813 20.202278 
L 70.084375 18.955858 
L 73.135938 17.736243 
L 73.307374 17.669231 
L 76.1875 16.693538 
L 79.239063 15.683 
L 82.290625 14.695692 
L 83.908321 14.184615 
L 85.342188 13.78491 
L 88.39375 12.954751 
L 91.445313 12.14509 
L 94.496875 11.355928 
L 97.100875 10.7 
" style="fill:none;stroke:#1f77b4;stroke-width:1.5;"/>
   </g>
   <g id="LineCollection_2">
    <path clip-path="url(#p6747059b76)" d="M 237.920313 101.991945 
L 234.86875 102.076571 
L 231.817188 102.151242 
L 228.765625 102.215956 
L 225.714063 102.270714 
L 222.6625 102.315516 
L 219.610938 102.350363 
L 216.559375 102.375253 
L 213.507813 102.390187 
L 210.45625 102.395165 
L 207.404688 102.390187 
L 204.353125 102.375253 
L 201.301563 102.350363 
L 198.25 102.315516 
L 195.198438 102.270714 
L 192.146875 102.215956 
L 189.095313 102.151242 
L 186.04375 102.076571 
L 182.992188 101.991945 
L 179.940625 101.897363 
L 176.889063 101.792824 
L 173.8375 101.67833 
L 170.785938 101.553879 
L 167.734375 101.419473 
L 165.208944 101.3 
L 164.682813 101.273601 
L 161.63125 101.10993 
L 158.579688 100.935699 
L 155.528125 100.750909 
L 152.476563 100.555559 
L 149.425 100.34965 
L 146.373438 100.133182 
L 143.321875 99.906154 
L 140.270313 99.668566 
L 137.21875 99.42042 
L 134.167188 99.161713 
L 131.115625 98.892448 
L 128.064063 98.612622 
L 125.0125 98.322238 
L 121.960938 98.021294 
L 119.943803 97.815385 
L 118.909375 97.702978 
L 115.857813 97.360136 
L 112.80625 97.006055 
L 109.754688 96.640732 
L 106.703125 96.264169 
L 103.651563 95.876365 
L 100.6 95.47732 
L 97.548438 95.067035 
L 94.496875 94.645509 
L 92.277557 94.330769 
L 91.445313 94.204602 
L 88.39375 93.729973 
L 85.342188 93.243329 
L 82.290625 92.744668 
L 79.239063 92.233992 
L 76.1875 91.7113 
L 73.135938 91.176592 
L 71.291587 90.846154 
L 70.084375 90.613846 
L 67.032813 90.013718 
L 63.98125 89.400684 
L 60.929688 88.774744 
L 57.878125 88.135897 
L 54.826563 87.484145 
L 54.263653 87.361538 
L 51.775 86.776123 
L 48.723438 86.044354 
L 45.671875 85.298646 
L 42.620313 84.539 
" style="fill:none;stroke:#1f77b4;stroke-width:1.5;"/>
   </g>
   <g id="LineCollection_3">
    <path clip-path="url(#p6747059b76)" d="M 237.920313 115.639597 
L 234.86875 115.708479 
L 231.817188 115.769258 
L 228.765625 115.821932 
L 225.714063 115.866503 
L 222.6625 115.90297 
L 219.610938 115.931333 
L 216.559375 115.951592 
L 213.507813 115.963748 
L 210.45625 115.9678 
L 207.404688 115.963748 
L 204.353125 115.951592 
L 201.301563 115.931333 
L 198.25 115.90297 
L 195.198438 115.866503 
L 192.146875 115.821932 
L 189.095313 115.769258 
L 186.04375 115.708479 
L 182.992188 115.639597 
L 179.940625 115.562612 
L 176.889063 115.477522 
L 173.8375 115.384329 
L 170.785938 115.283032 
L 169.542708 115.238462 
L 167.734375 115.170469 
L 164.682813 115.047233 
L 161.63125 114.915497 
L 158.579688 114.775263 
L 155.528125 114.626529 
L 152.476563 114.469296 
L 149.425 114.303565 
L 146.373438 114.129334 
L 143.321875 113.946604 
L 140.270313 113.755375 
L 137.21875 113.555647 
L 134.167188 113.34742 
L 131.115625 113.130694 
L 128.064063 112.905469 
L 125.0125 112.671745 
L 121.960938 112.429522 
L 118.909375 112.178799 
L 115.857813 111.919578 
L 113.96875 111.753846 
L 112.80625 111.646627 
L 109.754688 111.356243 
L 106.703125 111.056923 
L 103.651563 110.748669 
L 100.6 110.431479 
L 97.548438 110.105355 
L 94.496875 109.770296 
L 91.445313 109.426302 
L 88.39375 109.073373 
L 85.342188 108.711509 
L 82.290625 108.34071 
L 81.716213 108.269231 
L 79.239063 107.944314 
L 76.1875 107.534636 
L 73.135938 107.115541 
L 70.084375 106.687027 
L 67.032813 106.249096 
L 63.98125 105.801746 
L 60.929688 105.344979 
L 57.878125 104.878794 
L 57.273855 104.784615 
L 54.826563 104.381396 
L 51.775 103.868659 
L 48.723438 103.345967 
L 45.671875 102.813319 
L 42.620313 102.270714 
" style="fill:none;stroke:#1f77b4;stroke-width:1.5;"/>
   </g>
   <g id="LineCollection_4">
    <path clip-path="url(#p6747059b76)" d="M 237.920313 127.111044 
L 234.86875 127.171491 
L 231.817188 127.224827 
L 228.765625 127.271052 
L 225.714063 127.310165 
L 222.6625 127.342166 
L 219.610938 127.367057 
L 216.559375 127.384835 
L 213.507813 127.395502 
L 210.45625 127.399058 
L 207.404688 127.395502 
L 204.353125 127.384835 
L 201.301563 127.367057 
L 198.25 127.342166 
L 195.198438 127.310165 
L 192.146875 127.271052 
L 189.095313 127.224827 
L 186.04375 127.171491 
L 182.992188 127.111044 
L 179.940625 127.043485 
L 176.889063 126.968815 
L 173.8375 126.887033 
L 170.785938 126.79814 
L 167.734375 126.702135 
L 164.682813 126.599019 
L 161.63125 126.488791 
L 158.579688 126.371452 
L 155.528125 126.247002 
L 152.476563 126.11544 
L 149.425 125.976766 
L 146.373438 125.830981 
L 143.605741 125.692308 
L 143.321875 125.67748 
L 140.270313 125.510663 
L 137.21875 125.336432 
L 134.167188 125.154787 
L 131.115625 124.965728 
L 128.064063 124.769255 
L 125.0125 124.565368 
L 121.960938 124.354067 
L 118.909375 124.135352 
L 115.857813 123.909223 
L 112.80625 123.675679 
L 109.754688 123.434722 
L 106.703125 123.18635 
L 103.651563 122.930565 
L 100.6 122.667365 
L 97.548438 122.396751 
L 95.473375 122.207692 
L 94.496875 122.114769 
L 91.445313 121.816641 
L 88.39375 121.510769 
L 85.342188 121.197154 
L 82.290625 120.875795 
L 79.239063 120.546692 
L 76.1875 120.209846 
L 73.135938 119.865256 
L 70.084375 119.512923 
L 67.032813 119.152846 
L 63.98125 118.785026 
L 63.477899 118.723077 
L 60.929688 118.394875 
L 57.878125 117.993739 
L 54.826563 117.584499 
L 51.775 117.167156 
L 48.723438 116.741708 
L 45.671875 116.308157 
L 42.620313 115.866503 
" style="fill:none;stroke:#1f77b4;stroke-width:1.5;"/>
   </g>
   <g id="LineCollection_5">
    <path clip-path="url(#p6747059b76)" d="M 237.920313 137.220049 
L 234.86875 137.273902 
L 231.817188 137.32142 
L 228.765625 137.362601 
L 225.714063 137.397448 
L 222.6625 137.425958 
L 219.610938 137.448133 
L 216.559375 137.463972 
L 213.507813 137.473476 
L 210.45625 137.476643 
L 207.404688 137.473476 
L 204.353125 137.463972 
L 201.301563 137.448133 
L 198.25 137.425958 
L 195.198438 137.397448 
L 192.146875 137.362601 
L 189.095313 137.32142 
L 186.04375 137.273902 
L 182.992188 137.220049 
L 179.940625 137.15986 
L 176.889063 137.093336 
L 173.8375 137.020476 
L 170.785938 136.94128 
L 167.734375 136.855748 
L 164.682813 136.763881 
L 161.63125 136.665678 
L 158.579688 136.56114 
L 155.528125 136.450266 
L 152.476563 136.333056 
L 149.425 136.20951 
L 147.936433 136.146154 
L 146.373438 136.077119 
L 143.321875 135.935762 
L 140.270313 135.78783 
L 137.21875 135.633324 
L 134.167188 135.472242 
L 131.115625 135.304586 
L 128.064063 135.130356 
L 125.0125 134.94955 
L 121.960938 134.76217 
L 118.909375 134.568215 
L 115.857813 134.367685 
L 112.80625 134.160581 
L 109.754688 133.946901 
L 106.703125 133.726647 
L 103.651563 133.499819 
L 100.6 133.266415 
L 97.548438 133.026437 
L 94.496875 132.779884 
L 93.07017 132.661538 
L 91.445313 132.521471 
L 88.39375 132.251584 
L 85.342188 131.974864 
L 82.290625 131.691312 
L 79.239063 131.400928 
L 76.1875 131.10371 
L 73.135938 130.799661 
L 70.084375 130.488778 
L 67.032813 130.171063 
L 63.98125 129.846516 
L 60.929688 129.515136 
L 57.878125 129.176923 
L 57.878125 129.176923 
L 54.826563 128.817794 
L 51.775 128.451554 
L 48.723438 128.078203 
L 45.671875 127.697739 
L 42.620313 127.310165 
" style="fill:none;stroke:#1f77b4;stroke-width:1.5;"/>
   </g>
   <g id="LineCollection_6">
    <path clip-path="url(#p6747059b76)" d="M 210.45625 146.6 
L 207.404688 146.597047 
L 204.353125 146.588188 
L 201.301563 146.573422 
L 198.25 146.552751 
L 195.198438 146.526173 
L 192.146875 146.49369 
L 189.095313 146.4553 
L 186.04375 146.411004 
L 182.992188 146.360802 
L 179.940625 146.304694 
L 176.889063 146.242679 
L 173.8375 146.174759 
L 170.785938 146.100932 
L 167.734375 146.021199 
L 164.682813 145.935561 
L 161.63125 145.844016 
L 158.579688 145.746565 
L 155.528125 145.643207 
L 152.476563 145.533944 
L 149.425 145.418774 
L 146.373438 145.297699 
L 143.321875 145.170717 
L 140.270313 145.037829 
L 137.21875 144.899035 
L 134.167188 144.754335 
L 131.115625 144.603729 
L 128.064063 144.447216 
L 125.0125 144.284798 
L 121.960938 144.116473 
L 118.909375 143.942243 
L 115.857813 143.762106 
L 112.80625 143.576063 
L 109.754688 143.384113 
L 106.703125 143.186258 
L 105.641712 143.115385 
L 103.651563 142.977834 
L 100.6 142.76081 
L 97.548438 142.537672 
L 94.496875 142.308421 
L 91.445313 142.073057 
L 88.39375 141.831579 
L 85.342188 141.583988 
L 82.290625 141.330283 
L 79.239063 141.070466 
L 76.1875 140.804534 
L 73.135938 140.53249 
L 70.084375 140.254332 
L 67.032813 139.970061 
L 63.98125 139.679676 
L 63.477899 139.630769 
L 60.929688 139.374175 
L 57.878125 139.060559 
L 54.826563 138.740608 
L 51.775 138.414322 
L 48.723438 138.081699 
L 45.671875 137.742741 
L 42.620313 137.397448 
" style="fill:none;stroke:#1f77b4;stroke-width:1.5;"/>
    <path clip-path="url(#p6747059b76)" d="M 237.920313 146.360802 
L 234.86875 146.411004 
L 231.817188 146.4553 
L 228.765625 146.49369 
L 225.714063 146.526173 
L 222.6625 146.552751 
L 219.610938 146.573422 
L 216.559375 146.588188 
L 213.507813 146.597047 
L 210.45625 146.6 
" style="fill:none;stroke:#1f77b4;stroke-width:1.5;"/>
   </g>
   <g id="LineCollection_7">
    <path clip-path="url(#p6747059b76)" d="M 43.320212 146.6 
L 42.620313 146.526173 
" style="fill:none;stroke:#1f77b4;stroke-width:1.5;"/>
   </g>
   <g id="line2d_8">
    <path clip-path="url(#p6747059b76)" d="M 57.878125 111.753846 
L 70.084369 97.815385 
L 78.348688 89.108097 
L 84.908015 82.608408 
L 90.459611 77.410729 
L 95.325825 73.101347 
L 99.686585 69.4495 
L 103.654327 66.310089 
L 107.304852 63.584212 
L 110.692126 61.200407 
L 113.856191 59.104725 
L 116.827733 57.255022 
L 119.630892 55.617488 
L 122.285062 54.164405 
L 124.806115 52.872664 
L 127.207235 51.722725 
L 129.499519 50.697881 
L 131.692415 49.783724 
L 133.79405 48.967733 
L 135.811475 48.238964 
L 137.750858 47.587809 
" style="fill:none;stroke:#ff7f0e;stroke-linecap:square;stroke-width:1.5;"/>
    <defs>
     <path d="M 0 3 
C 0.795609 3 1.55874 2.683901 2.12132 2.12132 
C 2.683901 1.55874 3 0.795609 3 0 
C 3 -0.795609 2.683901 -1.55874 2.12132 -2.12132 
C 1.55874 -2.683901 0.795609 -3 0 -3 
C -0.795609 -3 -1.55874 -2.683901 -2.12132 -2.12132 
C -2.683901 -1.55874 -3 -0.795609 -3 0 
C -3 0.795609 -2.683901 1.55874 -2.12132 2.12132 
C -1.55874 2.683901 -0.795609 3 0 3 
z
" id="mc51d6d806a" style="stroke:#ff7f0e;"/>
    </defs>
    <g clip-path="url(#p6747059b76)">
     <use style="fill:#ff7f0e;stroke:#ff7f0e;" x="57.878125" xlink:href="#mc51d6d806a" y="111.753846"/>
     <use style="fill:#ff7f0e;stroke:#ff7f0e;" x="70.084369" xlink:href="#mc51d6d806a" y="97.815385"/>
     <use style="fill:#ff7f0e;stroke:#ff7f0e;" x="78.348688" xlink:href="#mc51d6d806a" y="89.108097"/>
     <use style="fill:#ff7f0e;stroke:#ff7f0e;" x="84.908015" xlink:href="#mc51d6d806a" y="82.608408"/>
     <use style="fill:#ff7f0e;stroke:#ff7f0e;" x="90.459611" xlink:href="#mc51d6d806a" y="77.410729"/>
     <use style="fill:#ff7f0e;stroke:#ff7f0e;" x="95.325825" xlink:href="#mc51d6d806a" y="73.101347"/>
     <use style="fill:#ff7f0e;stroke:#ff7f0e;" x="99.686585" xlink:href="#mc51d6d806a" y="69.4495"/>
     <use style="fill:#ff7f0e;stroke:#ff7f0e;" x="103.654327" xlink:href="#mc51d6d806a" y="66.310089"/>
     <use style="fill:#ff7f0e;stroke:#ff7f0e;" x="107.304852" xlink:href="#mc51d6d806a" y="63.584212"/>
     <use style="fill:#ff7f0e;stroke:#ff7f0e;" x="110.692126" xlink:href="#mc51d6d806a" y="61.200407"/>
     <use style="fill:#ff7f0e;stroke:#ff7f0e;" x="113.856191" xlink:href="#mc51d6d806a" y="59.104725"/>
     <use style="fill:#ff7f0e;stroke:#ff7f0e;" x="116.827733" xlink:href="#mc51d6d806a" y="57.255022"/>
     <use style="fill:#ff7f0e;stroke:#ff7f0e;" x="119.630892" xlink:href="#mc51d6d806a" y="55.617488"/>
     <use style="fill:#ff7f0e;stroke:#ff7f0e;" x="122.285062" xlink:href="#mc51d6d806a" y="54.164405"/>
     <use style="fill:#ff7f0e;stroke:#ff7f0e;" x="124.806115" xlink:href="#mc51d6d806a" y="52.872664"/>
     <use style="fill:#ff7f0e;stroke:#ff7f0e;" x="127.207235" xlink:href="#mc51d6d806a" y="51.722725"/>
     <use style="fill:#ff7f0e;stroke:#ff7f0e;" x="129.499519" xlink:href="#mc51d6d806a" y="50.697881"/>
     <use style="fill:#ff7f0e;stroke:#ff7f0e;" x="131.692415" xlink:href="#mc51d6d806a" y="49.783724"/>
     <use style="fill:#ff7f0e;stroke:#ff7f0e;" x="133.79405" xlink:href="#mc51d6d806a" y="48.967733"/>
     <use style="fill:#ff7f0e;stroke:#ff7f0e;" x="135.811475" xlink:href="#mc51d6d806a" y="48.238964"/>
     <use style="fill:#ff7f0e;stroke:#ff7f0e;" x="137.750858" xlink:href="#mc51d6d806a" y="47.587809"/>
    </g>
   </g>
   <g id="patch_3">
    <path d="M 42.620312 146.6 
L 42.620312 10.7 
" style="fill:none;stroke:#000000;stroke-linecap:square;stroke-linejoin:miter;stroke-width:0.8;"/>
   </g>
   <g id="patch_4">
    <path d="M 237.920313 146.6 
L 237.920313 10.7 
" style="fill:none;stroke:#000000;stroke-linecap:square;stroke-linejoin:miter;stroke-width:0.8;"/>
   </g>
   <g id="patch_5">
    <path d="M 42.620313 146.6 
L 237.920313 146.6 
" style="fill:none;stroke:#000000;stroke-linecap:square;stroke-linejoin:miter;stroke-width:0.8;"/>
   </g>
   <g id="patch_6">
    <path d="M 42.620313 10.7 
L 237.920313 10.7 
" style="fill:none;stroke:#000000;stroke-linecap:square;stroke-linejoin:miter;stroke-width:0.8;"/>
   </g>
  </g>
 </g>
 <defs>
  <clipPath id="p6747059b76">
   <rect height="135.9" width="195.3" x="42.620312" y="10.7"/>
  </clipPath>
 </defs>
</svg>
