<?xml version="1.0" encoding="utf-8" standalone="no"?>
<!DOCTYPE svg PUBLIC "-//W3C//DTD SVG 1.1//EN"
  "http://www.w3.org/Graphics/SVG/1.1/DTD/svg11.dtd">
<!-- Created with matplotlib (http://matplotlib.org/) -->
<svg height="170.478125pt" version="1.1" viewBox="0 0 226.5625 170.478125" width="226.5625pt" xmlns="http://www.w3.org/2000/svg" xmlns:xlink="http://www.w3.org/1999/xlink">
 <defs>
  <style type="text/css">
*{stroke-linecap:butt;stroke-linejoin:round;}
  </style>
 </defs>
 <g id="figure_1">
  <g id="patch_1">
   <path d="M 0 170.478125 
L 226.5625 170.478125 
L 226.5625 0 
L 0 0 
z
" style="fill:none;"/>
  </g>
  <g id="axes_1">
   <g id="patch_2">
    <path d="M 20.5625 146.6 
L 215.8625 146.6 
L 215.8625 10.7 
L 20.5625 10.7 
z
" style="fill:#ffffff;"/>
   </g>
   <g id="matplotlib.axis_1">
    <g id="xtick_1">
     <g id="line2d_1">
      <defs>
       <path d="M 0 0 
L 0 3.5 
" id="m9c6420dbb5" style="stroke:#000000;stroke-width:0.8;"/>
      </defs>
      <g>
       <use style="stroke:#000000;stroke-width:0.8;" x="27.628084" xlink:href="#m9c6420dbb5" y="146.6"/>
      </g>
     </g>
     <g id="text_1">
      <!-- 0.0 -->
      <defs>
       <path d="M 31.78125 66.40625 
Q 24.171875 66.40625 20.328125 58.90625 
Q 16.5 51.421875 16.5 36.375 
Q 16.5 21.390625 20.328125 13.890625 
Q 24.171875 6.390625 31.78125 6.390625 
Q 39.453125 6.390625 43.28125 13.890625 
Q 47.125 21.390625 47.125 36.375 
Q 47.125 51.421875 43.28125 58.90625 
Q 39.453125 66.40625 31.78125 66.40625 
z
M 31.78125 74.21875 
Q 44.046875 74.21875 50.515625 64.515625 
Q 56.984375 54.828125 56.984375 36.375 
Q 56.984375 17.96875 50.515625 8.265625 
Q 44.046875 -1.421875 31.78125 -1.421875 
Q 19.53125 -1.421875 13.0625 8.265625 
Q 6.59375 17.96875 6.59375 36.375 
Q 6.59375 54.828125 13.0625 64.515625 
Q 19.53125 74.21875 31.78125 74.21875 
z
" id="DejaVuSans-30"/>
       <path d="M 10.6875 12.40625 
L 21 12.40625 
L 21 0 
L 10.6875 0 
z
" id="DejaVuSans-2e"/>
      </defs>
      <g transform="translate(19.676522 161.198437)scale(0.1 -0.1)">
       <use xlink:href="#DejaVuSans-30"/>
       <use x="63.623047" xlink:href="#DejaVuSans-2e"/>
       <use x="95.410156" xlink:href="#DejaVuSans-30"/>
      </g>
     </g>
    </g>
    <g id="xtick_2">
     <g id="line2d_2">
      <g>
       <use style="stroke:#000000;stroke-width:0.8;" x="63.861852" xlink:href="#m9c6420dbb5" y="146.6"/>
      </g>
     </g>
     <g id="text_2">
      <!-- 0.2 -->
      <defs>
       <path d="M 19.1875 8.296875 
L 53.609375 8.296875 
L 53.609375 0 
L 7.328125 0 
L 7.328125 8.296875 
Q 12.9375 14.109375 22.625 23.890625 
Q 32.328125 33.6875 34.8125 36.53125 
Q 39.546875 41.84375 41.421875 45.53125 
Q 43.3125 49.21875 43.3125 52.78125 
Q 43.3125 58.59375 39.234375 62.25 
Q 35.15625 65.921875 28.609375 65.921875 
Q 23.96875 65.921875 18.8125 64.3125 
Q 13.671875 62.703125 7.8125 59.421875 
L 7.8125 69.390625 
Q 13.765625 71.78125 18.9375 73 
Q 24.125 74.21875 28.421875 74.21875 
Q 39.75 74.21875 46.484375 68.546875 
Q 53.21875 62.890625 53.21875 53.421875 
Q 53.21875 48.921875 51.53125 44.890625 
Q 49.859375 40.875 45.40625 35.40625 
Q 44.1875 33.984375 37.640625 27.21875 
Q 31.109375 20.453125 19.1875 8.296875 
z
" id="DejaVuSans-32"/>
      </defs>
      <g transform="translate(55.91029 161.198437)scale(0.1 -0.1)">
       <use xlink:href="#DejaVuSans-30"/>
       <use x="63.623047" xlink:href="#DejaVuSans-2e"/>
       <use x="95.410156" xlink:href="#DejaVuSans-32"/>
      </g>
     </g>
    </g>
    <g id="xtick_3">
     <g id="line2d_3">
      <g>
       <use style="stroke:#000000;stroke-width:0.8;" x="100.095621" xlink:href="#m9c6420dbb5" y="146.6"/>
      </g>
     </g>
     <g id="text_3">
      <!-- 0.4 -->
      <defs>
       <path d="M 37.796875 64.3125 
L 12.890625 25.390625 
L 37.796875 25.390625 
z
M 35.203125 72.90625 
L 47.609375 72.90625 
L 47.609375 25.390625 
L 58.015625 25.390625 
L 58.015625 17.1875 
L 47.609375 17.1875 
L 47.609375 0 
L 37.796875 0 
L 37.796875 17.1875 
L 4.890625 17.1875 
L 4.890625 26.703125 
z
" id="DejaVuSans-34"/>
      </defs>
      <g transform="translate(92.144058 161.198437)scale(0.1 -0.1)">
       <use xlink:href="#DejaVuSans-30"/>
       <use x="63.623047" xlink:href="#DejaVuSans-2e"/>
       <use x="95.410156" xlink:href="#DejaVuSans-34"/>
      </g>
     </g>
    </g>
    <g id="xtick_4">
     <g id="line2d_4">
      <g>
       <use style="stroke:#000000;stroke-width:0.8;" x="136.329389" xlink:href="#m9c6420dbb5" y="146.6"/>
      </g>
     </g>
     <g id="text_4">
      <!-- 0.6 -->
      <defs>
       <path d="M 33.015625 40.375 
Q 26.375 40.375 22.484375 35.828125 
Q 18.609375 31.296875 18.609375 23.390625 
Q 18.609375 15.53125 22.484375 10.953125 
Q 26.375 6.390625 33.015625 6.390625 
Q 39.65625 6.390625 43.53125 10.953125 
Q 47.40625 15.53125 47.40625 23.390625 
Q 47.40625 31.296875 43.53125 35.828125 
Q 39.65625 40.375 33.015625 40.375 
z
M 52.59375 71.296875 
L 52.59375 62.3125 
Q 48.875 64.0625 45.09375 64.984375 
Q 41.3125 65.921875 37.59375 65.921875 
Q 27.828125 65.921875 22.671875 59.328125 
Q 17.53125 52.734375 16.796875 39.40625 
Q 19.671875 43.65625 24.015625 45.921875 
Q 28.375 48.1875 33.59375 48.1875 
Q 44.578125 48.1875 50.953125 41.515625 
Q 57.328125 34.859375 57.328125 23.390625 
Q 57.328125 12.15625 50.6875 5.359375 
Q 44.046875 -1.421875 33.015625 -1.421875 
Q 20.359375 -1.421875 13.671875 8.265625 
Q 6.984375 17.96875 6.984375 36.375 
Q 6.984375 53.65625 15.1875 63.9375 
Q 23.390625 74.21875 37.203125 74.21875 
Q 40.921875 74.21875 44.703125 73.484375 
Q 48.484375 72.75 52.59375 71.296875 
z
" id="DejaVuSans-36"/>
      </defs>
      <g transform="translate(128.377826 161.198437)scale(0.1 -0.1)">
       <use xlink:href="#DejaVuSans-30"/>
       <use x="63.623047" xlink:href="#DejaVuSans-2e"/>
       <use x="95.410156" xlink:href="#DejaVuSans-36"/>
      </g>
     </g>
    </g>
    <g id="xtick_5">
     <g id="line2d_5">
      <g>
       <use style="stroke:#000000;stroke-width:0.8;" x="172.563157" xlink:href="#m9c6420dbb5" y="146.6"/>
      </g>
     </g>
     <g id="text_5">
      <!-- 0.8 -->
      <defs>
       <path d="M 31.78125 34.625 
Q 24.75 34.625 20.71875 30.859375 
Q 16.703125 27.09375 16.703125 20.515625 
Q 16.703125 13.921875 20.71875 10.15625 
Q 24.75 6.390625 31.78125 6.390625 
Q 38.8125 6.390625 42.859375 10.171875 
Q 46.921875 13.96875 46.921875 20.515625 
Q 46.921875 27.09375 42.890625 30.859375 
Q 38.875 34.625 31.78125 34.625 
z
M 21.921875 38.8125 
Q 15.578125 40.375 12.03125 44.71875 
Q 8.5 49.078125 8.5 55.328125 
Q 8.5 64.0625 14.71875 69.140625 
Q 20.953125 74.21875 31.78125 74.21875 
Q 42.671875 74.21875 48.875 69.140625 
Q 55.078125 64.0625 55.078125 55.328125 
Q 55.078125 49.078125 51.53125 44.71875 
Q 48 40.375 41.703125 38.8125 
Q 48.828125 37.15625 52.796875 32.3125 
Q 56.78125 27.484375 56.78125 20.515625 
Q 56.78125 9.90625 50.3125 4.234375 
Q 43.84375 -1.421875 31.78125 -1.421875 
Q 19.734375 -1.421875 13.25 4.234375 
Q 6.78125 9.90625 6.78125 20.515625 
Q 6.78125 27.484375 10.78125 32.3125 
Q 14.796875 37.15625 21.921875 38.8125 
z
M 18.3125 54.390625 
Q 18.3125 48.734375 21.84375 45.5625 
Q 25.390625 42.390625 31.78125 42.390625 
Q 38.140625 42.390625 41.71875 45.5625 
Q 45.3125 48.734375 45.3125 54.390625 
Q 45.3125 60.0625 41.71875 63.234375 
Q 38.140625 66.40625 31.78125 66.40625 
Q 25.390625 66.40625 21.84375 63.234375 
Q 18.3125 60.0625 18.3125 54.390625 
z
" id="DejaVuSans-38"/>
      </defs>
      <g transform="translate(164.611594 161.198437)scale(0.1 -0.1)">
       <use xlink:href="#DejaVuSans-30"/>
       <use x="63.623047" xlink:href="#DejaVuSans-2e"/>
       <use x="95.410156" xlink:href="#DejaVuSans-38"/>
      </g>
     </g>
    </g>
    <g id="xtick_6">
     <g id="line2d_6">
      <g>
       <use style="stroke:#000000;stroke-width:0.8;" x="208.796925" xlink:href="#m9c6420dbb5" y="146.6"/>
      </g>
     </g>
     <g id="text_6">
      <!-- 1.0 -->
      <defs>
       <path d="M 12.40625 8.296875 
L 28.515625 8.296875 
L 28.515625 63.921875 
L 10.984375 60.40625 
L 10.984375 69.390625 
L 28.421875 72.90625 
L 38.28125 72.90625 
L 38.28125 8.296875 
L 54.390625 8.296875 
L 54.390625 0 
L 12.40625 0 
z
" id="DejaVuSans-31"/>
      </defs>
      <g transform="translate(200.845362 161.198437)scale(0.1 -0.1)">
       <use xlink:href="#DejaVuSans-31"/>
       <use x="63.623047" xlink:href="#DejaVuSans-2e"/>
       <use x="95.410156" xlink:href="#DejaVuSans-30"/>
      </g>
     </g>
    </g>
   </g>
   <g id="matplotlib.axis_2">
    <g id="ytick_1">
     <g id="line2d_7">
      <defs>
       <path d="M 0 0 
L -3.5 0 
" id="m9710714407" style="stroke:#000000;stroke-width:0.8;"/>
      </defs>
      <g>
       <use style="stroke:#000000;stroke-width:0.8;" x="20.5625" xlink:href="#m9710714407" y="140.422727"/>
      </g>
     </g>
     <g id="text_7">
      <!-- 0 -->
      <g transform="translate(7.2 144.221946)scale(0.1 -0.1)">
       <use xlink:href="#DejaVuSans-30"/>
      </g>
     </g>
    </g>
    <g id="ytick_2">
     <g id="line2d_8">
      <g>
       <use style="stroke:#000000;stroke-width:0.8;" x="20.5625" xlink:href="#m9710714407" y="113.595173"/>
      </g>
     </g>
     <g id="text_8">
      <!-- 1 -->
      <g transform="translate(7.2 117.394392)scale(0.1 -0.1)">
       <use xlink:href="#DejaVuSans-31"/>
      </g>
     </g>
    </g>
    <g id="ytick_3">
     <g id="line2d_9">
      <g>
       <use style="stroke:#000000;stroke-width:0.8;" x="20.5625" xlink:href="#m9710714407" y="86.767619"/>
      </g>
     </g>
     <g id="text_9">
      <!-- 2 -->
      <g transform="translate(7.2 90.566838)scale(0.1 -0.1)">
       <use xlink:href="#DejaVuSans-32"/>
      </g>
     </g>
    </g>
    <g id="ytick_4">
     <g id="line2d_10">
      <g>
       <use style="stroke:#000000;stroke-width:0.8;" x="20.5625" xlink:href="#m9710714407" y="59.940065"/>
      </g>
     </g>
     <g id="text_10">
      <!-- 3 -->
      <defs>
       <path d="M 40.578125 39.3125 
Q 47.65625 37.796875 51.625 33 
Q 55.609375 28.21875 55.609375 21.1875 
Q 55.609375 10.40625 48.1875 4.484375 
Q 40.765625 -1.421875 27.09375 -1.421875 
Q 22.515625 -1.421875 17.65625 -0.515625 
Q 12.796875 0.390625 7.625 2.203125 
L 7.625 11.71875 
Q 11.71875 9.328125 16.59375 8.109375 
Q 21.484375 6.890625 26.8125 6.890625 
Q 36.078125 6.890625 40.9375 10.546875 
Q 45.796875 14.203125 45.796875 21.1875 
Q 45.796875 27.640625 41.28125 31.265625 
Q 36.765625 34.90625 28.71875 34.90625 
L 20.21875 34.90625 
L 20.21875 43.015625 
L 29.109375 43.015625 
Q 36.375 43.015625 40.234375 45.921875 
Q 44.09375 48.828125 44.09375 54.296875 
Q 44.09375 59.90625 40.109375 62.90625 
Q 36.140625 65.921875 28.71875 65.921875 
Q 24.65625 65.921875 20.015625 65.03125 
Q 15.375 64.15625 9.8125 62.3125 
L 9.8125 71.09375 
Q 15.4375 72.65625 20.34375 73.4375 
Q 25.25 74.21875 29.59375 74.21875 
Q 40.828125 74.21875 47.359375 69.109375 
Q 53.90625 64.015625 53.90625 55.328125 
Q 53.90625 49.265625 50.4375 45.09375 
Q 46.96875 40.921875 40.578125 39.3125 
z
" id="DejaVuSans-33"/>
      </defs>
      <g transform="translate(7.2 63.739283)scale(0.1 -0.1)">
       <use xlink:href="#DejaVuSans-33"/>
      </g>
     </g>
    </g>
    <g id="ytick_5">
     <g id="line2d_11">
      <g>
       <use style="stroke:#000000;stroke-width:0.8;" x="20.5625" xlink:href="#m9710714407" y="33.11251"/>
      </g>
     </g>
     <g id="text_11">
      <!-- 4 -->
      <g transform="translate(7.2 36.911729)scale(0.1 -0.1)">
       <use xlink:href="#DejaVuSans-34"/>
      </g>
     </g>
    </g>
   </g>
   <g id="line2d_12">
    <path clip-path="url(#p161406926c)" d="M 29.439773 16.877273 
L 31.251461 35.472716 
L 33.063149 46.350354 
L 34.874838 54.06816 
L 36.686526 60.054556 
L 38.498214 64.945798 
L 40.309903 69.081285 
L 42.121591 72.663604 
L 43.933279 75.823435 
L 45.744967 78.65 
L 47.556655 81.20694 
L 49.368345 83.541241 
L 51.180033 85.688588 
L 52.991722 87.676728 
L 54.803412 89.527638 
L 56.615098 91.259047 
L 58.426788 92.88546 
L 60.238477 94.418879 
L 62.050164 95.869371 
L 63.861853 97.245444 
L 65.67354 98.554366 
L 67.485229 99.802383 
L 69.296918 100.994917 
L 71.108605 102.136685 
L 72.920294 103.23184 
L 74.731981 104.284035 
L 76.543668 105.296513 
L 78.355354 106.272169 
L 80.167047 107.213585 
L 81.978733 108.123081 
L 83.79042 109.002749 
L 85.602112 109.854491 
L 87.413799 110.680021 
L 89.225485 111.480901 
L 91.037177 112.258568 
L 92.848864 113.014322 
L 94.660551 113.749369 
L 96.472243 114.464815 
L 98.28393 115.161673 
L 100.095616 115.840887 
L 101.907303 116.503328 
L 103.718995 117.149808 
L 105.530682 117.781073 
L 107.342368 118.397825 
L 109.15406 119.000719 
L 110.965747 119.590358 
L 112.777434 120.167316 
L 114.589126 120.732128 
L 116.400812 121.285293 
L 118.212499 121.827282 
L 120.024191 122.35854 
L 121.835878 122.879479 
L 123.647565 123.390494 
L 125.459251 123.891959 
L 127.270938 124.38422 
L 129.082635 124.867615 
L 130.894322 125.342451 
L 132.706009 125.809029 
L 134.517695 126.26763 
L 136.329382 126.718523 
L 138.141069 127.161964 
L 139.952766 127.598196 
L 141.764453 128.027445 
L 143.57614 128.449935 
L 145.387826 128.865874 
L 147.199513 129.275463 
L 149.0112 129.678892 
L 150.822886 130.076344 
L 152.634584 130.467996 
L 154.44627 130.85401 
L 156.257957 131.234549 
L 158.069644 131.609765 
L 159.881331 131.979806 
L 161.693017 132.344813 
L 163.504715 132.704921 
L 165.316401 133.060257 
L 167.128088 133.410949 
L 168.939775 133.757116 
L 170.751461 134.098872 
L 172.563148 134.43633 
L 174.374835 134.769595 
L 176.186532 135.098774 
L 177.998219 135.42396 
L 179.809906 135.745251 
L 181.621592 136.062741 
L 183.433279 136.376517 
L 185.244966 136.686665 
L 187.056663 136.99327 
L 188.86835 137.29641 
L 190.680036 137.596162 
L 192.491723 137.892601 
L 194.30341 138.185801 
L 196.115096 138.475832 
L 197.926794 138.762761 
L 199.738481 139.046653 
L 201.550167 139.327572 
L 203.361854 139.60558 
L 205.173541 139.880737 
L 206.985227 140.1531 
" style="fill:none;stroke:#1f77b4;stroke-linecap:square;stroke-width:1.5;"/>
   </g>
   <g id="line2d_13">
    <path clip-path="url(#p161406926c)" d="M 29.439773 18.112722 
L 31.251461 37.571715 
L 33.063149 49.172525 
L 34.874838 57.522344 
L 36.686526 64.072967 
L 38.498214 69.474413 
L 40.309903 74.075185 
L 42.121591 78.084334 
L 43.933279 81.637371 
L 45.744967 84.827271 
L 47.556655 87.720676 
L 49.368345 90.367019 
L 51.180033 92.804027 
L 52.991722 95.061168 
L 54.803412 97.1619 
L 56.615098 99.125235 
L 58.426788 100.966797 
L 60.238477 102.699572 
L 62.050164 104.334508 
L 63.861853 105.880901 
L 65.67354 107.346722 
L 67.485229 108.738861 
L 69.296918 110.063314 
L 71.108605 111.325336 
L 72.920294 112.529562 
L 74.731981 113.680095 
L 76.543668 114.78059 
L 78.355354 115.834325 
L 80.167047 116.844235 
L 81.978733 117.812974 
L 83.79042 118.74294 
L 85.602112 119.636326 
L 87.413799 120.495113 
L 89.225485 121.321121 
L 91.037177 122.116025 
L 92.848864 122.881348 
L 94.660551 123.618512 
L 96.472243 124.328821 
L 98.28393 125.013484 
L 100.095616 125.673623 
L 101.907303 126.31028 
L 103.718995 126.924433 
L 105.530682 127.516983 
L 107.342368 128.088781 
L 109.15406 128.640622 
L 110.965747 129.173247 
L 112.777434 129.687359 
L 114.589126 130.183616 
L 116.400812 130.662636 
L 118.212499 131.125005 
L 120.024191 131.571275 
L 121.835878 132.001968 
L 123.647565 132.417577 
L 125.459251 132.818573 
L 127.270938 133.205398 
L 129.082635 133.578478 
L 130.894322 133.938208 
L 132.706009 134.284973 
L 134.517695 134.619137 
L 136.329382 134.941045 
L 138.141069 135.251029 
L 139.952766 135.549405 
L 141.764453 135.836473 
L 143.57614 136.112522 
L 145.387826 136.377828 
L 147.199513 136.632657 
L 149.0112 136.877261 
L 150.822886 137.111884 
L 152.634584 137.336761 
L 154.44627 137.552112 
L 156.257957 137.758155 
L 158.069644 137.955098 
L 159.881331 138.143138 
L 161.693017 138.322469 
L 163.504715 138.493276 
L 165.316401 138.655735 
L 167.128088 138.810018 
L 168.939775 138.956293 
L 170.751461 139.094717 
L 172.563148 139.225448 
L 174.374835 139.348632 
L 176.186532 139.464416 
L 177.998219 139.572937 
L 179.809906 139.674331 
L 181.621592 139.768729 
L 183.433279 139.856258 
L 185.244966 139.937039 
L 187.056663 140.011192 
L 188.86835 140.078832 
L 190.680036 140.140071 
L 192.491723 140.195016 
L 194.30341 140.243773 
L 196.115096 140.286444 
L 197.926794 140.323129 
L 199.738481 140.353924 
L 201.550167 140.378921 
L 203.361854 140.398213 
L 205.173541 140.411887 
L 206.985227 140.420031 
" style="fill:none;stroke:#ff7f0e;stroke-dasharray:5.55,2.4;stroke-dashoffset:0;stroke-width:1.5;"/>
   </g>
   <g id="line2d_14">
    <path clip-path="url(#p161406926c)" d="M 29.439773 22.932223 
L 31.251461 45.556223 
L 33.063149 59.639572 
L 34.874838 70.011578 
L 36.686526 78.235374 
L 38.498214 85.029909 
L 40.309903 90.791316 
L 42.121591 95.763936 
L 43.933279 100.110689 
L 45.744967 103.946553 
L 47.556655 107.356281 
L 49.368345 110.404553 
L 51.180033 113.142086 
L 52.991722 115.609584 
L 54.803412 117.840302 
L 56.615098 119.861886 
L 58.426788 121.697606 
L 60.238477 123.36727 
L 62.050164 124.887933 
L 63.861853 126.274394 
L 65.67354 127.539594 
L 67.485229 128.694928 
L 69.296918 129.750472 
L 71.108605 130.715204 
L 72.920294 131.597155 
L 74.731981 132.403527 
L 76.543668 133.14081 
L 78.355354 133.814874 
L 80.167047 134.431035 
L 81.978733 134.994124 
L 83.79042 135.508542 
L 85.602112 135.978309 
L 87.413799 136.407089 
L 89.225485 136.798247 
L 91.037177 137.154867 
L 92.848864 137.479773 
L 94.660551 137.775566 
L 96.472243 138.044637 
L 98.28393 138.289188 
L 100.095616 138.511243 
L 101.907303 138.712671 
L 103.718995 138.895193 
L 105.530682 139.060396 
L 107.342368 139.209745 
L 109.15406 139.344591 
L 110.965747 139.466178 
L 112.777434 139.575655 
L 114.589126 139.674083 
L 116.400812 139.762438 
L 118.212499 139.84162 
L 120.024191 139.912459 
L 121.835878 139.975718 
L 123.647565 140.032101 
L 125.459251 140.082254 
L 127.270938 140.126772 
L 129.082635 140.166198 
L 130.894322 140.201034 
L 132.706009 140.231739 
L 134.517695 140.258732 
L 136.329382 140.282396 
L 138.141069 140.303083 
L 139.952766 140.321112 
L 141.764453 140.336773 
L 143.57614 140.350332 
L 145.387826 140.362028 
L 147.199513 140.372079 
L 149.0112 140.380681 
L 150.822886 140.388011 
L 152.634584 140.394228 
L 154.44627 140.399475 
L 156.257957 140.403881 
L 158.069644 140.40756 
L 159.881331 140.410613 
L 161.693017 140.41313 
L 163.504715 140.41519 
L 165.316401 140.416865 
L 167.128088 140.418214 
L 168.939775 140.419292 
L 170.751461 140.420145 
L 172.563148 140.420812 
L 174.374835 140.421327 
L 176.186532 140.421721 
L 177.998219 140.422018 
L 179.809906 140.422237 
L 181.621592 140.422396 
L 183.433279 140.42251 
L 185.244966 140.422589 
L 187.056663 140.422642 
L 188.86835 140.422677 
L 190.680036 140.422699 
L 192.491723 140.422712 
L 194.30341 140.42272 
L 196.115096 140.422724 
L 197.926794 140.422726 
L 199.738481 140.422727 
L 201.550167 140.422727 
L 203.361854 140.422727 
L 205.173541 140.422727 
L 206.985227 140.422727 
" style="fill:none;stroke:#2ca02c;stroke-dasharray:9.6,2.4,1.5,2.4;stroke-dashoffset:0;stroke-width:1.5;"/>
   </g>
   <g id="patch_3">
    <path d="M 20.5625 146.6 
L 20.5625 10.7 
" style="fill:none;stroke:#000000;stroke-linecap:square;stroke-linejoin:miter;stroke-width:0.8;"/>
   </g>
   <g id="patch_4">
    <path d="M 215.8625 146.6 
L 215.8625 10.7 
" style="fill:none;stroke:#000000;stroke-linecap:square;stroke-linejoin:miter;stroke-width:0.8;"/>
   </g>
   <g id="patch_5">
    <path d="M 20.5625 146.6 
L 215.8625 146.6 
" style="fill:none;stroke:#000000;stroke-linecap:square;stroke-linejoin:miter;stroke-width:0.8;"/>
   </g>
   <g id="patch_6">
    <path d="M 20.5625 10.7 
L 215.8625 10.7 
" style="fill:none;stroke:#000000;stroke-linecap:square;stroke-linejoin:miter;stroke-width:0.8;"/>
   </g>
   <g id="legend_1">
    <g id="patch_7">
     <path d="M 114.49375 62.734375 
L 208.8625 62.734375 
Q 210.8625 62.734375 210.8625 60.734375 
L 210.8625 17.7 
Q 210.8625 15.7 208.8625 15.7 
L 114.49375 15.7 
Q 112.49375 15.7 112.49375 17.7 
L 112.49375 60.734375 
Q 112.49375 62.734375 114.49375 62.734375 
z
" style="fill:#ffffff;opacity:0.8;stroke:#cccccc;stroke-linejoin:miter;"/>
    </g>
    <g id="line2d_15">
     <path d="M 116.49375 23.798437 
L 136.49375 23.798437 
" style="fill:none;stroke:#1f77b4;stroke-linecap:square;stroke-width:1.5;"/>
    </g>
    <g id="line2d_16"/>
    <g id="text_12">
     <!-- gamma=0.0 -->
     <defs>
      <path d="M 45.40625 27.984375 
Q 45.40625 37.75 41.375 43.109375 
Q 37.359375 48.484375 30.078125 48.484375 
Q 22.859375 48.484375 18.828125 43.109375 
Q 14.796875 37.75 14.796875 27.984375 
Q 14.796875 18.265625 18.828125 12.890625 
Q 22.859375 7.515625 30.078125 7.515625 
Q 37.359375 7.515625 41.375 12.890625 
Q 45.40625 18.265625 45.40625 27.984375 
z
M 54.390625 6.78125 
Q 54.390625 -7.171875 48.1875 -13.984375 
Q 42 -20.796875 29.203125 -20.796875 
Q 24.46875 -20.796875 20.265625 -20.09375 
Q 16.0625 -19.390625 12.109375 -17.921875 
L 12.109375 -9.1875 
Q 16.0625 -11.328125 19.921875 -12.34375 
Q 23.78125 -13.375 27.78125 -13.375 
Q 36.625 -13.375 41.015625 -8.765625 
Q 45.40625 -4.15625 45.40625 5.171875 
L 45.40625 9.625 
Q 42.625 4.78125 38.28125 2.390625 
Q 33.9375 0 27.875 0 
Q 17.828125 0 11.671875 7.65625 
Q 5.515625 15.328125 5.515625 27.984375 
Q 5.515625 40.671875 11.671875 48.328125 
Q 17.828125 56 27.875 56 
Q 33.9375 56 38.28125 53.609375 
Q 42.625 51.21875 45.40625 46.390625 
L 45.40625 54.6875 
L 54.390625 54.6875 
z
" id="DejaVuSans-67"/>
      <path d="M 34.28125 27.484375 
Q 23.390625 27.484375 19.1875 25 
Q 14.984375 22.515625 14.984375 16.5 
Q 14.984375 11.71875 18.140625 8.90625 
Q 21.296875 6.109375 26.703125 6.109375 
Q 34.1875 6.109375 38.703125 11.40625 
Q 43.21875 16.703125 43.21875 25.484375 
L 43.21875 27.484375 
z
M 52.203125 31.203125 
L 52.203125 0 
L 43.21875 0 
L 43.21875 8.296875 
Q 40.140625 3.328125 35.546875 0.953125 
Q 30.953125 -1.421875 24.3125 -1.421875 
Q 15.921875 -1.421875 10.953125 3.296875 
Q 6 8.015625 6 15.921875 
Q 6 25.140625 12.171875 29.828125 
Q 18.359375 34.515625 30.609375 34.515625 
L 43.21875 34.515625 
L 43.21875 35.40625 
Q 43.21875 41.609375 39.140625 45 
Q 35.0625 48.390625 27.6875 48.390625 
Q 23 48.390625 18.546875 47.265625 
Q 14.109375 46.140625 10.015625 43.890625 
L 10.015625 52.203125 
Q 14.9375 54.109375 19.578125 55.046875 
Q 24.21875 56 28.609375 56 
Q 40.484375 56 46.34375 49.84375 
Q 52.203125 43.703125 52.203125 31.203125 
z
" id="DejaVuSans-61"/>
      <path d="M 52 44.1875 
Q 55.375 50.25 60.0625 53.125 
Q 64.75 56 71.09375 56 
Q 79.640625 56 84.28125 50.015625 
Q 88.921875 44.046875 88.921875 33.015625 
L 88.921875 0 
L 79.890625 0 
L 79.890625 32.71875 
Q 79.890625 40.578125 77.09375 44.375 
Q 74.3125 48.1875 68.609375 48.1875 
Q 61.625 48.1875 57.5625 43.546875 
Q 53.515625 38.921875 53.515625 30.90625 
L 53.515625 0 
L 44.484375 0 
L 44.484375 32.71875 
Q 44.484375 40.625 41.703125 44.40625 
Q 38.921875 48.1875 33.109375 48.1875 
Q 26.21875 48.1875 22.15625 43.53125 
Q 18.109375 38.875 18.109375 30.90625 
L 18.109375 0 
L 9.078125 0 
L 9.078125 54.6875 
L 18.109375 54.6875 
L 18.109375 46.1875 
Q 21.1875 51.21875 25.484375 53.609375 
Q 29.78125 56 35.6875 56 
Q 41.65625 56 45.828125 52.96875 
Q 50 49.953125 52 44.1875 
z
" id="DejaVuSans-6d"/>
      <path d="M 10.59375 45.40625 
L 73.1875 45.40625 
L 73.1875 37.203125 
L 10.59375 37.203125 
z
M 10.59375 25.484375 
L 73.1875 25.484375 
L 73.1875 17.1875 
L 10.59375 17.1875 
z
" id="DejaVuSans-3d"/>
     </defs>
     <g transform="translate(144.49375 27.298437)scale(0.1 -0.1)">
      <use xlink:href="#DejaVuSans-67"/>
      <use x="63.476562" xlink:href="#DejaVuSans-61"/>
      <use x="124.755859" xlink:href="#DejaVuSans-6d"/>
      <use x="222.167969" xlink:href="#DejaVuSans-6d"/>
      <use x="319.580078" xlink:href="#DejaVuSans-61"/>
      <use x="380.859375" xlink:href="#DejaVuSans-3d"/>
      <use x="464.648438" xlink:href="#DejaVuSans-30"/>
      <use x="528.271484" xlink:href="#DejaVuSans-2e"/>
      <use x="560.058594" xlink:href="#DejaVuSans-30"/>
     </g>
    </g>
    <g id="line2d_17">
     <path d="M 116.49375 38.476562 
L 136.49375 38.476562 
" style="fill:none;stroke:#ff7f0e;stroke-dasharray:5.55,2.4;stroke-dashoffset:0;stroke-width:1.5;"/>
    </g>
    <g id="line2d_18"/>
    <g id="text_13">
     <!-- gamma=1.0 -->
     <g transform="translate(144.49375 41.976562)scale(0.1 -0.1)">
      <use xlink:href="#DejaVuSans-67"/>
      <use x="63.476562" xlink:href="#DejaVuSans-61"/>
      <use x="124.755859" xlink:href="#DejaVuSans-6d"/>
      <use x="222.167969" xlink:href="#DejaVuSans-6d"/>
      <use x="319.580078" xlink:href="#DejaVuSans-61"/>
      <use x="380.859375" xlink:href="#DejaVuSans-3d"/>
      <use x="464.648438" xlink:href="#DejaVuSans-31"/>
      <use x="528.271484" xlink:href="#DejaVuSans-2e"/>
      <use x="560.058594" xlink:href="#DejaVuSans-30"/>
     </g>
    </g>
    <g id="line2d_19">
     <path d="M 116.49375 53.154687 
L 136.49375 53.154687 
" style="fill:none;stroke:#2ca02c;stroke-dasharray:9.6,2.4,1.5,2.4;stroke-dashoffset:0;stroke-width:1.5;"/>
    </g>
    <g id="line2d_20"/>
    <g id="text_14">
     <!-- gamma=5.0 -->
     <defs>
      <path d="M 10.796875 72.90625 
L 49.515625 72.90625 
L 49.515625 64.59375 
L 19.828125 64.59375 
L 19.828125 46.734375 
Q 21.96875 47.46875 24.109375 47.828125 
Q 26.265625 48.1875 28.421875 48.1875 
Q 40.625 48.1875 47.75 41.5 
Q 54.890625 34.8125 54.890625 23.390625 
Q 54.890625 11.625 47.5625 5.09375 
Q 40.234375 -1.421875 26.90625 -1.421875 
Q 22.3125 -1.421875 17.546875 -0.640625 
Q 12.796875 0.140625 7.71875 1.703125 
L 7.71875 11.625 
Q 12.109375 9.234375 16.796875 8.0625 
Q 21.484375 6.890625 26.703125 6.890625 
Q 35.15625 6.890625 40.078125 11.328125 
Q 45.015625 15.765625 45.015625 23.390625 
Q 45.015625 31 40.078125 35.4375 
Q 35.15625 39.890625 26.703125 39.890625 
Q 22.75 39.890625 18.8125 39.015625 
Q 14.890625 38.140625 10.796875 36.28125 
z
" id="DejaVuSans-35"/>
     </defs>
     <g transform="translate(144.49375 56.654687)scale(0.1 -0.1)">
      <use xlink:href="#DejaVuSans-67"/>
      <use x="63.476562" xlink:href="#DejaVuSans-61"/>
      <use x="124.755859" xlink:href="#DejaVuSans-6d"/>
      <use x="222.167969" xlink:href="#DejaVuSans-6d"/>
      <use x="319.580078" xlink:href="#DejaVuSans-61"/>
      <use x="380.859375" xlink:href="#DejaVuSans-3d"/>
      <use x="464.648438" xlink:href="#DejaVuSans-35"/>
      <use x="528.271484" xlink:href="#DejaVuSans-2e"/>
      <use x="560.058594" xlink:href="#DejaVuSans-30"/>
     </g>
    </g>
   </g>
  </g>
 </g>
 <defs>
  <clipPath id="p161406926c">
   <rect height="135.9" width="195.3" x="20.5625" y="10.7"/>
  </clipPath>
 </defs>
</svg>
