<?xml version="1.0" encoding="utf-8" standalone="no"?>
<!DOCTYPE svg PUBLIC "-//W3C//DTD SVG 1.1//EN"
  "http://www.w3.org/Graphics/SVG/1.1/DTD/svg11.dtd">
<!-- Created with matplotlib (http://matplotlib.org/) -->
<svg height="184.15625pt" version="1.1" viewBox="0 0 248.620313 184.15625" width="248.620313pt" xmlns="http://www.w3.org/2000/svg" xmlns:xlink="http://www.w3.org/1999/xlink">
 <defs>
  <style type="text/css">
*{stroke-linecap:butt;stroke-linejoin:round;}
  </style>
 </defs>
 <g id="figure_1">
  <g id="patch_1">
   <path d="M 0 184.15625 
L 248.620313 184.15625 
L 248.620313 -0 
L 0 -0 
z
" style="fill:none;"/>
  </g>
  <g id="axes_1">
   <g id="patch_2">
    <path d="M 42.620312 146.6 
L 237.920313 146.6 
L 237.920313 10.7 
L 42.620312 10.7 
z
" style="fill:#ffffff;"/>
   </g>
   <g id="matplotlib.axis_1">
    <g id="xtick_1">
     <g id="line2d_1">
      <defs>
       <path d="M 0 0 
L 0 3.5 
" id="m1c341120c0" style="stroke:#000000;stroke-width:0.8;"/>
      </defs>
      <g>
       <use style="stroke:#000000;stroke-width:0.8;" x="88.39375" xlink:href="#m1c341120c0" y="146.6"/>
      </g>
     </g>
     <g id="text_1">
      <!-- −4 -->
      <defs>
       <path d="M 10.59375 35.5 
L 73.1875 35.5 
L 73.1875 27.203125 
L 10.59375 27.203125 
z
" id="DejaVuSans-2212"/>
       <path d="M 37.796875 64.3125 
L 12.890625 25.390625 
L 37.796875 25.390625 
z
M 35.203125 72.90625 
L 47.609375 72.90625 
L 47.609375 25.390625 
L 58.015625 25.390625 
L 58.015625 17.1875 
L 47.609375 17.1875 
L 47.609375 0 
L 37.796875 0 
L 37.796875 17.1875 
L 4.890625 17.1875 
L 4.890625 26.703125 
z
" id="DejaVuSans-34"/>
      </defs>
      <g transform="translate(81.022656 161.198437)scale(0.1 -0.1)">
       <use xlink:href="#DejaVuSans-2212"/>
       <use x="83.789062" xlink:href="#DejaVuSans-34"/>
      </g>
     </g>
    </g>
    <g id="xtick_2">
     <g id="line2d_2">
      <g>
       <use style="stroke:#000000;stroke-width:0.8;" x="149.425" xlink:href="#m1c341120c0" y="146.6"/>
      </g>
     </g>
     <g id="text_2">
      <!-- −2 -->
      <defs>
       <path d="M 19.1875 8.296875 
L 53.609375 8.296875 
L 53.609375 0 
L 7.328125 0 
L 7.328125 8.296875 
Q 12.9375 14.109375 22.625 23.890625 
Q 32.328125 33.6875 34.8125 36.53125 
Q 39.546875 41.84375 41.421875 45.53125 
Q 43.3125 49.21875 43.3125 52.78125 
Q 43.3125 58.59375 39.234375 62.25 
Q 35.15625 65.921875 28.609375 65.921875 
Q 23.96875 65.921875 18.8125 64.3125 
Q 13.671875 62.703125 7.8125 59.421875 
L 7.8125 69.390625 
Q 13.765625 71.78125 18.9375 73 
Q 24.125 74.21875 28.421875 74.21875 
Q 39.75 74.21875 46.484375 68.546875 
Q 53.21875 62.890625 53.21875 53.421875 
Q 53.21875 48.921875 51.53125 44.890625 
Q 49.859375 40.875 45.40625 35.40625 
Q 44.1875 33.984375 37.640625 27.21875 
Q 31.109375 20.453125 19.1875 8.296875 
z
" id="DejaVuSans-32"/>
      </defs>
      <g transform="translate(142.053906 161.198437)scale(0.1 -0.1)">
       <use xlink:href="#DejaVuSans-2212"/>
       <use x="83.789062" xlink:href="#DejaVuSans-32"/>
      </g>
     </g>
    </g>
    <g id="xtick_3">
     <g id="line2d_3">
      <g>
       <use style="stroke:#000000;stroke-width:0.8;" x="210.45625" xlink:href="#m1c341120c0" y="146.6"/>
      </g>
     </g>
     <g id="text_3">
      <!-- 0 -->
      <defs>
       <path d="M 31.78125 66.40625 
Q 24.171875 66.40625 20.328125 58.90625 
Q 16.5 51.421875 16.5 36.375 
Q 16.5 21.390625 20.328125 13.890625 
Q 24.171875 6.390625 31.78125 6.390625 
Q 39.453125 6.390625 43.28125 13.890625 
Q 47.125 21.390625 47.125 36.375 
Q 47.125 51.421875 43.28125 58.90625 
Q 39.453125 66.40625 31.78125 66.40625 
z
M 31.78125 74.21875 
Q 44.046875 74.21875 50.515625 64.515625 
Q 56.984375 54.828125 56.984375 36.375 
Q 56.984375 17.96875 50.515625 8.265625 
Q 44.046875 -1.421875 31.78125 -1.421875 
Q 19.53125 -1.421875 13.0625 8.265625 
Q 6.59375 17.96875 6.59375 36.375 
Q 6.59375 54.828125 13.0625 64.515625 
Q 19.53125 74.21875 31.78125 74.21875 
z
" id="DejaVuSans-30"/>
      </defs>
      <g transform="translate(207.275 161.198437)scale(0.1 -0.1)">
       <use xlink:href="#DejaVuSans-30"/>
      </g>
     </g>
    </g>
    <g id="text_4">
     <!-- x1 -->
     <defs>
      <path d="M 54.890625 54.6875 
L 35.109375 28.078125 
L 55.90625 0 
L 45.3125 0 
L 29.390625 21.484375 
L 13.484375 0 
L 2.875 0 
L 24.125 28.609375 
L 4.6875 54.6875 
L 15.28125 54.6875 
L 29.78125 35.203125 
L 44.28125 54.6875 
z
" id="DejaVuSans-78"/>
      <path d="M 12.40625 8.296875 
L 28.515625 8.296875 
L 28.515625 63.921875 
L 10.984375 60.40625 
L 10.984375 69.390625 
L 28.421875 72.90625 
L 38.28125 72.90625 
L 38.28125 8.296875 
L 54.390625 8.296875 
L 54.390625 0 
L 12.40625 0 
z
" id="DejaVuSans-31"/>
     </defs>
     <g transform="translate(134.129687 174.876562)scale(0.1 -0.1)">
      <use xlink:href="#DejaVuSans-78"/>
      <use x="59.179688" xlink:href="#DejaVuSans-31"/>
     </g>
    </g>
   </g>
   <g id="matplotlib.axis_2">
    <g id="ytick_1">
     <g id="line2d_4">
      <defs>
       <path d="M 0 0 
L -3.5 0 
" id="m73bde20796" style="stroke:#000000;stroke-width:0.8;"/>
      </defs>
      <g>
       <use style="stroke:#000000;stroke-width:0.8;" x="42.620312" xlink:href="#m73bde20796" y="126.316418"/>
      </g>
     </g>
     <g id="text_5">
      <!-- −2 -->
      <g transform="translate(20.878125 130.115637)scale(0.1 -0.1)">
       <use xlink:href="#DejaVuSans-2212"/>
       <use x="83.789062" xlink:href="#DejaVuSans-32"/>
      </g>
     </g>
    </g>
    <g id="ytick_2">
     <g id="line2d_5">
      <g>
       <use style="stroke:#000000;stroke-width:0.8;" x="42.620312" xlink:href="#m73bde20796" y="85.749254"/>
      </g>
     </g>
     <g id="text_6">
      <!-- 0 -->
      <g transform="translate(29.257812 89.548472)scale(0.1 -0.1)">
       <use xlink:href="#DejaVuSans-30"/>
      </g>
     </g>
    </g>
    <g id="ytick_3">
     <g id="line2d_6">
      <g>
       <use style="stroke:#000000;stroke-width:0.8;" x="42.620312" xlink:href="#m73bde20796" y="45.18209"/>
      </g>
     </g>
     <g id="text_7">
      <!-- 2 -->
      <g transform="translate(29.257812 48.981308)scale(0.1 -0.1)">
       <use xlink:href="#DejaVuSans-32"/>
      </g>
     </g>
    </g>
    <g id="text_8">
     <!-- x2 -->
     <g transform="translate(14.798437 84.790625)rotate(-90)scale(0.1 -0.1)">
      <use xlink:href="#DejaVuSans-78"/>
      <use x="59.179688" xlink:href="#DejaVuSans-32"/>
     </g>
    </g>
   </g>
   <g id="LineCollection_1">
    <path clip-path="url(#pf819611123)" d="M 237.920313 114.142512 
L 237.740809 114.146269 
L 234.86875 114.202223 
L 231.817188 114.254681 
L 228.765625 114.300144 
L 225.714063 114.338613 
L 222.6625 114.370087 
L 219.610938 114.394568 
L 216.559375 114.412054 
L 213.507813 114.422545 
L 210.45625 114.426042 
L 207.404688 114.422545 
L 204.353125 114.412054 
L 201.301563 114.394568 
L 198.25 114.370087 
L 195.198438 114.338613 
L 192.146875 114.300144 
L 189.095313 114.254681 
L 186.04375 114.202223 
L 183.171691 114.146269 
L 182.992188 114.142512 
L 179.940625 114.071144 
L 176.889063 113.992264 
L 173.8375 113.905871 
L 170.785938 113.811965 
L 167.734375 113.710547 
L 164.682813 113.601617 
L 161.63125 113.485174 
L 158.579688 113.361219 
L 155.528125 113.229751 
L 152.476563 113.090771 
L 149.425 112.944279 
L 146.373438 112.790274 
L 143.321875 112.628756 
L 140.270313 112.459726 
L 137.21875 112.283184 
L 134.478571 112.11791 
L 134.167188 112.097627 
L 131.115625 111.890734 
L 128.064063 111.675728 
L 125.0125 111.452609 
L 121.960938 111.221376 
L 118.909375 110.98203 
L 115.857813 110.73457 
L 112.80625 110.478997 
L 109.754688 110.21531 
L 108.342771 110.089552 
L 106.703125 109.930811 
L 103.651563 109.626557 
L 100.6 109.313485 
L 97.548438 108.991593 
L 94.496875 108.660883 
L 91.445313 108.321353 
L 89.166297 108.061194 
L 88.39375 107.964606 
L 85.342188 107.573422 
L 82.290625 107.17258 
L 79.239063 106.762079 
L 76.1875 106.341919 
L 73.993118 106.032836 
L 73.135938 105.899391 
L 70.084375 105.413653 
L 67.032813 104.917239 
L 63.98125 104.410149 
L 61.590335 104.004478 
L 60.929688 103.879197 
L 57.878125 103.288586 
L 54.826563 102.686045 
L 51.775 102.071572 
L 51.31 101.976119 
L 48.723438 101.374373 
L 45.671875 100.650925 
L 42.760292 99.947761 
L 42.620313 99.908754 
" style="fill:none;stroke:#1f77b4;stroke-width:1.5;"/>
    <path clip-path="url(#pf819611123)" d="M 42.620313 71.589753 
L 42.760292 71.550746 
L 45.671875 70.847582 
L 48.723438 70.124134 
L 51.31 69.522388 
L 51.775 69.426936 
L 54.826563 68.812463 
L 57.878125 68.209921 
L 60.929688 67.619311 
L 61.590335 67.49403 
L 63.98125 67.088358 
L 67.032813 66.581269 
L 70.084375 66.084855 
L 73.135938 65.599116 
L 73.993118 65.465672 
L 76.1875 65.156588 
L 79.239063 64.736429 
L 82.290625 64.325928 
L 85.342188 63.925085 
L 88.39375 63.533902 
L 89.166297 63.437313 
L 91.445313 63.177154 
L 94.496875 62.837625 
L 97.548438 62.506914 
L 100.6 62.185023 
L 103.651563 61.87195 
L 106.703125 61.567696 
L 108.342771 61.408955 
L 109.754688 61.283197 
L 112.80625 61.01951 
L 115.857813 60.763937 
L 118.909375 60.516478 
L 121.960938 60.277131 
L 125.0125 60.045899 
L 128.064063 59.822779 
L 131.115625 59.607773 
L 134.167188 59.400881 
L 134.478571 59.380597 
L 137.21875 59.215323 
L 140.270313 59.038781 
L 143.321875 58.869751 
L 146.373438 58.708234 
L 149.425 58.554229 
L 152.476563 58.407736 
L 155.528125 58.268756 
L 158.579688 58.137289 
L 161.63125 58.013333 
L 164.682813 57.896891 
L 167.734375 57.78796 
L 170.785938 57.686542 
L 173.8375 57.592637 
L 176.889063 57.506244 
L 179.940625 57.427363 
L 182.992188 57.355995 
L 183.171691 57.352239 
L 186.04375 57.296284 
L 189.095313 57.243827 
L 192.146875 57.198363 
L 195.198438 57.159894 
L 198.25 57.12842 
L 201.301563 57.10394 
L 204.353125 57.086454 
L 207.404688 57.075962 
L 210.45625 57.072465 
L 213.507813 57.075962 
L 216.559375 57.086454 
L 219.610938 57.10394 
L 222.6625 57.12842 
L 225.714063 57.159894 
L 228.765625 57.198363 
L 231.817188 57.243827 
L 234.86875 57.296284 
L 237.740809 57.352239 
L 237.920313 57.355995 
" style="fill:none;stroke:#1f77b4;stroke-width:1.5;"/>
   </g>
   <g id="LineCollection_2">
    <path clip-path="url(#pf819611123)" d="M 237.920313 126.105781 
L 234.86875 126.149989 
L 231.817188 126.188995 
L 228.765625 126.222801 
L 225.714063 126.251406 
L 222.6625 126.274811 
L 219.610938 126.293014 
L 216.559375 126.306016 
L 213.507813 126.313817 
L 210.45625 126.316418 
L 210.45625 126.316418 
L 210.45625 126.316418 
L 207.404688 126.313817 
L 204.353125 126.306016 
L 201.301563 126.293014 
L 198.25 126.274811 
L 195.198438 126.251406 
L 192.146875 126.222801 
L 189.095313 126.188995 
L 186.04375 126.149989 
L 182.992188 126.105781 
L 179.940625 126.056372 
L 176.889063 126.001762 
L 173.8375 125.941952 
L 170.785938 125.87694 
L 167.734375 125.806728 
L 164.682813 125.731315 
L 161.63125 125.6507 
L 158.579688 125.564885 
L 155.528125 125.473869 
L 152.476563 125.377652 
L 149.425 125.276234 
L 146.373438 125.169615 
L 143.321875 125.057796 
L 140.270313 124.940775 
L 137.21875 124.818553 
L 134.167188 124.691131 
L 131.115625 124.558507 
L 128.064063 124.420683 
L 125.234432 124.28806 
L 125.0125 124.277096 
L 121.960938 124.120857 
L 118.909375 123.959137 
L 115.857813 123.791934 
L 112.80625 123.61925 
L 109.754688 123.441083 
L 106.703125 123.257434 
L 103.651563 123.068304 
L 100.6 122.873691 
L 97.548438 122.673596 
L 94.496875 122.468019 
L 91.484943 122.259701 
L 91.445313 122.256804 
L 88.39375 122.027889 
L 85.342188 121.793179 
L 82.290625 121.552674 
L 79.239063 121.306373 
L 76.1875 121.054277 
L 73.135938 120.796386 
L 70.084375 120.532699 
L 67.032813 120.263217 
L 66.679474 120.231343 
L 63.98125 119.973189 
L 60.929688 119.675081 
L 57.878125 119.370828 
L 54.826563 119.060427 
L 51.775 118.743881 
L 48.723438 118.421187 
L 46.698569 118.202985 
L 45.671875 118.085209 
L 42.620313 117.728611 
" style="fill:none;stroke:#1f77b4;stroke-width:1.5;"/>
    <path clip-path="url(#pf819611123)" d="M 42.620313 53.769896 
L 45.671875 53.413298 
L 46.698569 53.295522 
L 48.723438 53.07732 
L 51.775 52.754627 
L 54.826563 52.43808 
L 57.878125 52.12768 
L 60.929688 51.823426 
L 63.98125 51.525319 
L 66.679474 51.267164 
L 67.032813 51.23529 
L 70.084375 50.965808 
L 73.135938 50.702122 
L 76.1875 50.44423 
L 79.239063 50.192134 
L 82.290625 49.945834 
L 85.342188 49.705328 
L 88.39375 49.470618 
L 91.445313 49.241704 
L 91.484943 49.238806 
L 94.496875 49.030488 
L 97.548438 48.824911 
L 100.6 48.624816 
L 103.651563 48.430204 
L 106.703125 48.241073 
L 109.754688 48.057424 
L 112.80625 47.879258 
L 115.857813 47.706573 
L 118.909375 47.539371 
L 121.960938 47.37765 
L 125.0125 47.221412 
L 125.234432 47.210448 
L 128.064063 47.077824 
L 131.115625 46.94 
L 134.167188 46.807377 
L 137.21875 46.679954 
L 140.270313 46.557732 
L 143.321875 46.440712 
L 146.373438 46.328892 
L 149.425 46.222273 
L 152.476563 46.120855 
L 155.528125 46.024638 
L 158.579688 45.933622 
L 161.63125 45.847807 
L 164.682813 45.767193 
L 167.734375 45.69178 
L 170.785938 45.621567 
L 173.8375 45.556556 
L 176.889063 45.496745 
L 179.940625 45.442135 
L 182.992188 45.392727 
L 186.04375 45.348519 
L 189.095313 45.309512 
L 192.146875 45.275706 
L 195.198438 45.247101 
L 198.25 45.223697 
L 201.301563 45.205494 
L 204.353125 45.192491 
L 207.404688 45.18469 
L 210.45625 45.18209 
L 213.507813 45.18469 
L 216.559375 45.192491 
L 219.610938 45.205494 
L 222.6625 45.223697 
L 225.714063 45.247101 
L 228.765625 45.275706 
L 231.817188 45.309512 
L 234.86875 45.348519 
L 237.920313 45.392727 
" style="fill:none;stroke:#1f77b4;stroke-width:1.5;"/>
   </g>
   <g id="LineCollection_3">
    <path clip-path="url(#pf819611123)" d="M 237.920313 135.255682 
L 234.86875 135.290868 
L 231.817188 135.321914 
L 228.765625 135.348821 
L 225.714063 135.371588 
L 222.6625 135.390216 
L 219.610938 135.404705 
L 216.559375 135.415053 
L 213.507813 135.421263 
L 210.45625 135.423332 
L 207.404688 135.421263 
L 204.353125 135.415053 
L 201.301563 135.404705 
L 198.25 135.390216 
L 195.198438 135.371588 
L 192.146875 135.348821 
L 189.095313 135.321914 
L 186.04375 135.290868 
L 182.992188 135.255682 
L 179.940625 135.216357 
L 176.889063 135.172892 
L 173.8375 135.125288 
L 170.785938 135.073544 
L 167.734375 135.017661 
L 164.682813 134.957638 
L 161.63125 134.893475 
L 158.579688 134.825174 
L 155.528125 134.752732 
L 152.476563 134.676151 
L 149.425 134.595431 
L 146.373438 134.510571 
L 143.605741 134.429851 
L 143.321875 134.421219 
L 140.270313 134.324117 
L 137.21875 134.222699 
L 134.167188 134.116966 
L 131.115625 134.006916 
L 128.064063 133.892552 
L 125.0125 133.773871 
L 121.960938 133.650875 
L 118.909375 133.523563 
L 115.857813 133.391936 
L 112.80625 133.255992 
L 109.754688 133.115734 
L 106.703125 132.971159 
L 103.651563 132.822269 
L 100.6 132.669063 
L 97.548438 132.511542 
L 95.473375 132.401493 
L 94.496875 132.347403 
L 91.445313 132.173866 
L 88.39375 131.995821 
L 85.342188 131.813269 
L 82.290625 131.626209 
L 79.239063 131.434642 
L 76.1875 131.238567 
L 73.135938 131.037985 
L 70.084375 130.832896 
L 67.032813 130.623299 
L 63.98125 130.409194 
L 63.477899 130.373134 
L 60.929688 130.182091 
L 57.878125 129.948594 
L 54.826563 129.71038 
L 51.775 129.467449 
L 48.723438 129.2198 
L 45.671875 128.967435 
L 42.620313 128.710352 
" style="fill:none;stroke:#1f77b4;stroke-width:1.5;"/>
    <path clip-path="url(#pf819611123)" d="M 42.620313 42.788155 
L 45.671875 42.531073 
L 48.723438 42.278707 
L 51.775 42.031059 
L 54.826563 41.788127 
L 57.878125 41.549913 
L 60.929688 41.316416 
L 63.477899 41.125373 
L 63.98125 41.089313 
L 67.032813 40.875209 
L 70.084375 40.665612 
L 73.135938 40.460522 
L 76.1875 40.25994 
L 79.239063 40.063866 
L 82.290625 39.872299 
L 85.342188 39.685239 
L 88.39375 39.502687 
L 91.445313 39.324642 
L 94.496875 39.151104 
L 95.473375 39.097015 
L 97.548438 38.986966 
L 100.6 38.829444 
L 103.651563 38.676238 
L 106.703125 38.527348 
L 109.754688 38.382774 
L 112.80625 38.242515 
L 115.857813 38.106572 
L 118.909375 37.974944 
L 121.960938 37.847633 
L 125.0125 37.724636 
L 128.064063 37.605956 
L 131.115625 37.491591 
L 134.167188 37.381542 
L 137.21875 37.275808 
L 140.270313 37.17439 
L 143.321875 37.077288 
L 143.605741 37.068657 
L 146.373438 36.987936 
L 149.425 36.903076 
L 152.476563 36.822356 
L 155.528125 36.745775 
L 158.579688 36.673334 
L 161.63125 36.605032 
L 164.682813 36.54087 
L 167.734375 36.480847 
L 170.785938 36.424963 
L 173.8375 36.37322 
L 176.889063 36.325615 
L 179.940625 36.28215 
L 182.992188 36.242825 
L 186.04375 36.207639 
L 189.095313 36.176593 
L 192.146875 36.149686 
L 195.198438 36.126919 
L 198.25 36.108291 
L 201.301563 36.093803 
L 204.353125 36.083454 
L 207.404688 36.077245 
L 210.45625 36.075175 
L 213.507813 36.077245 
L 216.559375 36.083454 
L 219.610938 36.093803 
L 222.6625 36.108291 
L 225.714063 36.126919 
L 228.765625 36.149686 
L 231.817188 36.176593 
L 234.86875 36.207639 
L 237.920313 36.242825 
" style="fill:none;stroke:#1f77b4;stroke-width:1.5;"/>
   </g>
   <g id="LineCollection_4">
    <path clip-path="url(#pf819611123)" d="M 237.920313 142.968527 
L 234.86875 142.998775 
L 231.817188 143.025463 
L 228.765625 143.048594 
L 225.714063 143.068166 
L 222.6625 143.084179 
L 219.610938 143.096634 
L 216.559375 143.10553 
L 213.507813 143.110868 
L 210.45625 143.112647 
L 207.404688 143.110868 
L 204.353125 143.10553 
L 201.301563 143.096634 
L 198.25 143.084179 
L 195.198438 143.068166 
L 192.146875 143.048594 
L 189.095313 143.025463 
L 186.04375 142.998775 
L 182.992188 142.968527 
L 179.940625 142.934721 
L 176.889063 142.897357 
L 173.8375 142.856434 
L 170.785938 142.811952 
L 167.734375 142.763912 
L 164.682813 142.712313 
L 161.63125 142.657156 
L 158.579688 142.598441 
L 155.876875 142.543284 
L 155.528125 142.535908 
L 152.476563 142.467681 
L 149.425 142.395767 
L 146.373438 142.320164 
L 143.321875 142.240874 
L 140.270313 142.157896 
L 137.21875 142.071229 
L 134.167188 141.980875 
L 131.115625 141.886833 
L 128.064063 141.789103 
L 125.0125 141.687685 
L 121.960938 141.582579 
L 118.909375 141.473786 
L 115.857813 141.361304 
L 112.80625 141.245134 
L 109.754688 141.125277 
L 106.703125 141.001731 
L 103.651563 140.874498 
L 100.6 140.743577 
L 97.548438 140.608967 
L 95.473375 140.514925 
L 94.496875 140.469 
L 91.445313 140.321657 
L 88.39375 140.170487 
L 85.342188 140.01549 
L 82.290625 139.856666 
L 79.239063 139.694014 
L 76.1875 139.527536 
L 73.135938 139.35723 
L 70.084375 139.183098 
L 67.032813 139.005138 
L 63.98125 138.823351 
L 60.929688 138.637737 
L 58.494602 138.486567 
L 57.878125 138.446795 
L 54.826563 138.245948 
L 51.775 138.041124 
L 48.723438 137.832322 
L 45.671875 137.619543 
L 42.620313 137.402788 
" style="fill:none;stroke:#1f77b4;stroke-width:1.5;"/>
    <path clip-path="url(#pf819611123)" d="M 42.620313 34.09572 
L 45.671875 33.878964 
L 48.723438 33.666185 
L 51.775 33.457384 
L 54.826563 33.252559 
L 57.878125 33.051712 
L 58.494602 33.01194 
L 60.929688 32.86077 
L 63.98125 32.675156 
L 67.032813 32.493369 
L 70.084375 32.31541 
L 73.135938 32.141277 
L 76.1875 31.970972 
L 79.239063 31.804493 
L 82.290625 31.641842 
L 85.342188 31.483017 
L 88.39375 31.32802 
L 91.445313 31.17685 
L 94.496875 31.029507 
L 95.473375 30.983582 
L 97.548438 30.88954 
L 100.6 30.754931 
L 103.651563 30.624009 
L 106.703125 30.496776 
L 109.754688 30.373231 
L 112.80625 30.253373 
L 115.857813 30.137204 
L 118.909375 30.024722 
L 121.960938 29.915928 
L 125.0125 29.810822 
L 128.064063 29.709404 
L 131.115625 29.611674 
L 134.167188 29.517632 
L 137.21875 29.427278 
L 140.270313 29.340612 
L 143.321875 29.257634 
L 146.373438 29.178343 
L 149.425 29.102741 
L 152.476563 29.030826 
L 155.528125 28.9626 
L 155.876875 28.955224 
L 158.579688 28.900067 
L 161.63125 28.841351 
L 164.682813 28.786194 
L 167.734375 28.734595 
L 170.785938 28.686555 
L 173.8375 28.642074 
L 176.889063 28.601151 
L 179.940625 28.563786 
L 182.992188 28.52998 
L 186.04375 28.499733 
L 189.095313 28.473044 
L 192.146875 28.449914 
L 195.198438 28.430342 
L 198.25 28.414328 
L 201.301563 28.401874 
L 204.353125 28.392977 
L 207.404688 28.387639 
L 210.45625 28.38586 
L 213.507813 28.387639 
L 216.559375 28.392977 
L 219.610938 28.401874 
L 222.6625 28.414328 
L 225.714063 28.430342 
L 228.765625 28.449914 
L 231.817188 28.473044 
L 234.86875 28.499733 
L 237.920313 28.52998 
" style="fill:none;stroke:#1f77b4;stroke-width:1.5;"/>
   </g>
   <g id="LineCollection_5">
    <path clip-path="url(#pf819611123)" d="M 73.993118 146.6 
L 73.135938 146.557026 
L 70.084375 146.400602 
L 67.032813 146.24074 
L 63.98125 146.07744 
L 60.929688 145.910702 
L 57.878125 145.740526 
L 54.826563 145.566912 
L 51.775 145.389861 
L 48.723438 145.209371 
L 45.671875 145.025444 
L 42.620313 144.838079 
" style="fill:none;stroke:#1f77b4;stroke-width:1.5;"/>
    <path clip-path="url(#pf819611123)" d="M 42.620313 26.660429 
L 45.671875 26.473063 
L 48.723438 26.289136 
L 51.775 26.108647 
L 54.826563 25.931595 
L 57.878125 25.757981 
L 60.929688 25.587805 
L 63.98125 25.421068 
L 67.032813 25.257768 
L 70.084375 25.097905 
L 73.135938 24.941481 
L 73.993118 24.898507 
L 76.1875 24.792102 
L 79.239063 24.647457 
L 82.290625 24.506137 
L 85.342188 24.368142 
L 88.39375 24.233472 
L 91.445313 24.102127 
L 94.496875 23.974108 
L 97.548438 23.849414 
L 100.6 23.728045 
L 103.651563 23.610001 
L 106.703125 23.495283 
L 109.754688 23.383889 
L 112.80625 23.275821 
L 115.857813 23.171078 
L 118.909375 23.06966 
L 121.960938 22.971567 
L 125.0125 22.8768 
L 125.234432 22.870149 
L 128.064063 22.788049 
L 131.115625 22.702729 
L 134.167188 22.620629 
L 137.21875 22.541748 
L 140.270313 22.466087 
L 143.321875 22.393646 
L 146.373438 22.324424 
L 149.425 22.258422 
L 152.476563 22.19564 
L 155.528125 22.136077 
L 158.579688 22.079733 
L 161.63125 22.02661 
L 164.682813 21.976706 
L 167.734375 21.930021 
L 170.785938 21.886557 
L 173.8375 21.846311 
L 176.889063 21.809286 
L 179.940625 21.77548 
L 182.992188 21.744893 
L 186.04375 21.717527 
L 189.095313 21.69338 
L 192.146875 21.672452 
L 195.198438 21.654744 
L 198.25 21.640256 
L 201.301563 21.628987 
L 204.353125 21.620938 
L 207.404688 21.616109 
L 210.45625 21.614499 
L 213.507813 21.616109 
L 216.559375 21.620938 
L 219.610938 21.628987 
L 222.6625 21.640256 
L 225.714063 21.654744 
L 228.765625 21.672452 
L 231.817188 21.69338 
L 234.86875 21.717527 
L 237.920313 21.744893 
" style="fill:none;stroke:#1f77b4;stroke-width:1.5;"/>
   </g>
   <g id="LineCollection_6">
    <path clip-path="url(#pf819611123)" d="M 42.620313 20.069455 
L 45.671875 19.899385 
L 48.723438 19.732435 
L 51.775 19.568606 
L 54.826563 19.407898 
L 57.878125 19.25031 
L 60.929688 19.095843 
L 63.98125 18.944496 
L 66.679474 18.813433 
L 67.032813 18.796782 
L 70.084375 18.656008 
L 73.135938 18.518261 
L 76.1875 18.383542 
L 79.239063 18.25185 
L 82.290625 18.123186 
L 85.342188 17.997548 
L 88.39375 17.874939 
L 91.445313 17.755356 
L 94.496875 17.638802 
L 97.548438 17.525274 
L 100.6 17.414774 
L 103.651563 17.307301 
L 106.703125 17.202856 
L 109.754688 17.101438 
L 112.80625 17.003047 
L 115.857813 16.907684 
L 118.909375 16.815349 
L 119.943803 16.785075 
L 121.960938 16.727751 
L 125.0125 16.643971 
L 128.064063 16.563131 
L 131.115625 16.48523 
L 134.167188 16.410269 
L 137.21875 16.338248 
L 140.270313 16.269166 
L 143.321875 16.203024 
L 146.373438 16.139822 
L 149.425 16.079559 
L 152.476563 16.022236 
L 155.528125 15.967852 
L 158.579688 15.916408 
L 161.63125 15.867904 
L 164.682813 15.822339 
L 167.734375 15.779714 
L 170.785938 15.740029 
L 173.8375 15.703284 
L 176.889063 15.669478 
L 179.940625 15.638611 
L 182.992188 15.610685 
L 186.04375 15.585698 
L 189.095313 15.56365 
L 192.146875 15.544543 
L 195.198438 15.528374 
L 198.25 15.515146 
L 201.301563 15.504857 
L 204.353125 15.497508 
L 207.404688 15.493099 
L 210.45625 15.491629 
L 213.507813 15.493099 
L 216.559375 15.497508 
L 219.610938 15.504857 
L 222.6625 15.515146 
L 225.714063 15.528374 
L 228.765625 15.544543 
L 231.817188 15.56365 
L 234.86875 15.585698 
L 237.920313 15.610685 
" style="fill:none;stroke:#1f77b4;stroke-width:1.5;"/>
   </g>
   <g id="LineCollection_7">
    <path clip-path="url(#pf819611123)" d="M 42.620313 14.078216 
L 45.671875 13.922518 
L 48.723438 13.769677 
L 51.775 13.619693 
L 54.826563 13.472566 
L 57.878125 13.328295 
L 60.929688 13.186881 
L 63.98125 13.048325 
L 67.032813 12.912625 
L 70.084375 12.779781 
L 71.291587 12.728358 
L 73.135938 12.651947 
L 76.1875 12.528301 
L 79.239063 12.407433 
L 82.290625 12.289344 
L 85.342188 12.174033 
L 88.39375 12.061501 
L 91.445313 11.951747 
L 94.496875 11.844772 
L 97.548438 11.740576 
L 100.6 11.639158 
L 103.651563 11.540518 
L 106.703125 11.444658 
L 109.754688 11.351575 
L 112.80625 11.261272 
L 115.857813 11.173747 
L 118.909375 11.089 
L 121.960938 11.007032 
L 125.0125 10.927843 
L 128.064063 10.851432 
L 131.115625 10.7778 
L 134.167188 10.706946 
L 134.478571 10.7 
" style="fill:none;stroke:#1f77b4;stroke-width:1.5;"/>
   </g>
   <g id="line2d_7">
    <path clip-path="url(#pf819611123)" d="M 57.878125 126.316418 
L 76.1875 28.955224 
L 101.454438 116.580299 
L 127.168124 86.398328 
L 150.019542 69.749564 
L 168.697656 99.824437 
L 183.047744 81.081434 
L 193.511809 82.9127 
L 200.777175 90.636062 
L 205.571346 82.769403 
L 208.554621 85.987715 
L 210.274453 87.024564 
L 211.156185 84.482244 
L 211.513059 86.251907 
L 211.564679 85.93037 
L 211.457477 85.334922 
L 211.283729 86.031594 
L 211.097558 85.702313 
L 210.927515 85.65033 
L 210.785942 85.861755 
L 210.675592 85.697464 
" style="fill:none;stroke:#ff7f0e;stroke-linecap:square;stroke-width:1.5;"/>
    <defs>
     <path d="M 0 3 
C 0.795609 3 1.55874 2.683901 2.12132 2.12132 
C 2.683901 1.55874 3 0.795609 3 0 
C 3 -0.795609 2.683901 -1.55874 2.12132 -2.12132 
C 1.55874 -2.683901 0.795609 -3 0 -3 
C -0.795609 -3 -1.55874 -2.683901 -2.12132 -2.12132 
C -2.683901 -1.55874 -3 -0.795609 -3 0 
C -3 0.795609 -2.683901 1.55874 -2.12132 2.12132 
C -1.55874 2.683901 -0.795609 3 0 3 
z
" id="m07d6f3216b" style="stroke:#ff7f0e;"/>
    </defs>
    <g clip-path="url(#pf819611123)">
     <use style="fill:#ff7f0e;stroke:#ff7f0e;" x="57.878125" xlink:href="#m07d6f3216b" y="126.316418"/>
     <use style="fill:#ff7f0e;stroke:#ff7f0e;" x="76.1875" xlink:href="#m07d6f3216b" y="28.955224"/>
     <use style="fill:#ff7f0e;stroke:#ff7f0e;" x="101.454438" xlink:href="#m07d6f3216b" y="116.580299"/>
     <use style="fill:#ff7f0e;stroke:#ff7f0e;" x="127.168124" xlink:href="#m07d6f3216b" y="86.398328"/>
     <use style="fill:#ff7f0e;stroke:#ff7f0e;" x="150.019542" xlink:href="#m07d6f3216b" y="69.749564"/>
     <use style="fill:#ff7f0e;stroke:#ff7f0e;" x="168.697656" xlink:href="#m07d6f3216b" y="99.824437"/>
     <use style="fill:#ff7f0e;stroke:#ff7f0e;" x="183.047744" xlink:href="#m07d6f3216b" y="81.081434"/>
     <use style="fill:#ff7f0e;stroke:#ff7f0e;" x="193.511809" xlink:href="#m07d6f3216b" y="82.9127"/>
     <use style="fill:#ff7f0e;stroke:#ff7f0e;" x="200.777175" xlink:href="#m07d6f3216b" y="90.636062"/>
     <use style="fill:#ff7f0e;stroke:#ff7f0e;" x="205.571346" xlink:href="#m07d6f3216b" y="82.769403"/>
     <use style="fill:#ff7f0e;stroke:#ff7f0e;" x="208.554621" xlink:href="#m07d6f3216b" y="85.987715"/>
     <use style="fill:#ff7f0e;stroke:#ff7f0e;" x="210.274453" xlink:href="#m07d6f3216b" y="87.024564"/>
     <use style="fill:#ff7f0e;stroke:#ff7f0e;" x="211.156185" xlink:href="#m07d6f3216b" y="84.482244"/>
     <use style="fill:#ff7f0e;stroke:#ff7f0e;" x="211.513059" xlink:href="#m07d6f3216b" y="86.251907"/>
     <use style="fill:#ff7f0e;stroke:#ff7f0e;" x="211.564679" xlink:href="#m07d6f3216b" y="85.93037"/>
     <use style="fill:#ff7f0e;stroke:#ff7f0e;" x="211.457477" xlink:href="#m07d6f3216b" y="85.334922"/>
     <use style="fill:#ff7f0e;stroke:#ff7f0e;" x="211.283729" xlink:href="#m07d6f3216b" y="86.031594"/>
     <use style="fill:#ff7f0e;stroke:#ff7f0e;" x="211.097558" xlink:href="#m07d6f3216b" y="85.702313"/>
     <use style="fill:#ff7f0e;stroke:#ff7f0e;" x="210.927515" xlink:href="#m07d6f3216b" y="85.65033"/>
     <use style="fill:#ff7f0e;stroke:#ff7f0e;" x="210.785942" xlink:href="#m07d6f3216b" y="85.861755"/>
     <use style="fill:#ff7f0e;stroke:#ff7f0e;" x="210.675592" xlink:href="#m07d6f3216b" y="85.697464"/>
    </g>
   </g>
   <g id="patch_3">
    <path d="M 42.620312 146.6 
L 42.620312 10.7 
" style="fill:none;stroke:#000000;stroke-linecap:square;stroke-linejoin:miter;stroke-width:0.8;"/>
   </g>
   <g id="patch_4">
    <path d="M 237.920313 146.6 
L 237.920313 10.7 
" style="fill:none;stroke:#000000;stroke-linecap:square;stroke-linejoin:miter;stroke-width:0.8;"/>
   </g>
   <g id="patch_5">
    <path d="M 42.620313 146.6 
L 237.920313 146.6 
" style="fill:none;stroke:#000000;stroke-linecap:square;stroke-linejoin:miter;stroke-width:0.8;"/>
   </g>
   <g id="patch_6">
    <path d="M 42.620313 10.7 
L 237.920313 10.7 
" style="fill:none;stroke:#000000;stroke-linecap:square;stroke-linejoin:miter;stroke-width:0.8;"/>
   </g>
  </g>
 </g>
 <defs>
  <clipPath id="pf819611123">
   <rect height="135.9" width="195.3" x="42.620312" y="10.7"/>
  </clipPath>
 </defs>
</svg>
