<?xml version="1.0" encoding="utf-8" standalone="no"?>
<!DOCTYPE svg PUBLIC "-//W3C//DTD SVG 1.1//EN"
  "http://www.w3.org/Graphics/SVG/1.1/DTD/svg11.dtd">
<!-- Created with matplotlib (http://matplotlib.org/) -->
<svg height="184.455469pt" version="1.1" viewBox="0 0 248.620313 184.455469" width="248.620313pt" xmlns="http://www.w3.org/2000/svg" xmlns:xlink="http://www.w3.org/1999/xlink">
 <defs>
  <style type="text/css">
*{stroke-linecap:butt;stroke-linejoin:round;}
  </style>
 </defs>
 <g id="figure_1">
  <g id="patch_1">
   <path d="M 0 184.455469 
L 248.620313 184.455469 
L 248.620313 0 
L 0 0 
z
" style="fill:none;"/>
  </g>
  <g id="axes_1">
   <g id="patch_2">
    <path d="M 42.620312 146.899219 
L 237.920313 146.899219 
L 237.920313 10.999219 
L 42.620312 10.999219 
z
" style="fill:#ffffff;"/>
   </g>
   <g id="matplotlib.axis_1">
    <g id="xtick_1">
     <g id="line2d_1">
      <defs>
       <path d="M 0 0 
L 0 3.5 
" id="mbe5b5a2b2d" style="stroke:#000000;stroke-width:0.8;"/>
      </defs>
      <g>
       <use style="stroke:#000000;stroke-width:0.8;" x="88.39375" xlink:href="#mbe5b5a2b2d" y="146.899219"/>
      </g>
     </g>
     <g id="text_1">
      <!-- −4 -->
      <defs>
       <path d="M 10.59375 35.5 
L 73.1875 35.5 
L 73.1875 27.203125 
L 10.59375 27.203125 
z
" id="DejaVuSans-2212"/>
       <path d="M 37.796875 64.3125 
L 12.890625 25.390625 
L 37.796875 25.390625 
z
M 35.203125 72.90625 
L 47.609375 72.90625 
L 47.609375 25.390625 
L 58.015625 25.390625 
L 58.015625 17.1875 
L 47.609375 17.1875 
L 47.609375 0 
L 37.796875 0 
L 37.796875 17.1875 
L 4.890625 17.1875 
L 4.890625 26.703125 
z
" id="DejaVuSans-34"/>
      </defs>
      <g transform="translate(81.022656 161.497656)scale(0.1 -0.1)">
       <use xlink:href="#DejaVuSans-2212"/>
       <use x="83.789062" xlink:href="#DejaVuSans-34"/>
      </g>
     </g>
    </g>
    <g id="xtick_2">
     <g id="line2d_2">
      <g>
       <use style="stroke:#000000;stroke-width:0.8;" x="149.425" xlink:href="#mbe5b5a2b2d" y="146.899219"/>
      </g>
     </g>
     <g id="text_2">
      <!-- −2 -->
      <defs>
       <path d="M 19.1875 8.296875 
L 53.609375 8.296875 
L 53.609375 0 
L 7.328125 0 
L 7.328125 8.296875 
Q 12.9375 14.109375 22.625 23.890625 
Q 32.328125 33.6875 34.8125 36.53125 
Q 39.546875 41.84375 41.421875 45.53125 
Q 43.3125 49.21875 43.3125 52.78125 
Q 43.3125 58.59375 39.234375 62.25 
Q 35.15625 65.921875 28.609375 65.921875 
Q 23.96875 65.921875 18.8125 64.3125 
Q 13.671875 62.703125 7.8125 59.421875 
L 7.8125 69.390625 
Q 13.765625 71.78125 18.9375 73 
Q 24.125 74.21875 28.421875 74.21875 
Q 39.75 74.21875 46.484375 68.546875 
Q 53.21875 62.890625 53.21875 53.421875 
Q 53.21875 48.921875 51.53125 44.890625 
Q 49.859375 40.875 45.40625 35.40625 
Q 44.1875 33.984375 37.640625 27.21875 
Q 31.109375 20.453125 19.1875 8.296875 
z
" id="DejaVuSans-32"/>
      </defs>
      <g transform="translate(142.053906 161.497656)scale(0.1 -0.1)">
       <use xlink:href="#DejaVuSans-2212"/>
       <use x="83.789062" xlink:href="#DejaVuSans-32"/>
      </g>
     </g>
    </g>
    <g id="xtick_3">
     <g id="line2d_3">
      <g>
       <use style="stroke:#000000;stroke-width:0.8;" x="210.45625" xlink:href="#mbe5b5a2b2d" y="146.899219"/>
      </g>
     </g>
     <g id="text_3">
      <!-- 0 -->
      <defs>
       <path d="M 31.78125 66.40625 
Q 24.171875 66.40625 20.328125 58.90625 
Q 16.5 51.421875 16.5 36.375 
Q 16.5 21.390625 20.328125 13.890625 
Q 24.171875 6.390625 31.78125 6.390625 
Q 39.453125 6.390625 43.28125 13.890625 
Q 47.125 21.390625 47.125 36.375 
Q 47.125 51.421875 43.28125 58.90625 
Q 39.453125 66.40625 31.78125 66.40625 
z
M 31.78125 74.21875 
Q 44.046875 74.21875 50.515625 64.515625 
Q 56.984375 54.828125 56.984375 36.375 
Q 56.984375 17.96875 50.515625 8.265625 
Q 44.046875 -1.421875 31.78125 -1.421875 
Q 19.53125 -1.421875 13.0625 8.265625 
Q 6.59375 17.96875 6.59375 36.375 
Q 6.59375 54.828125 13.0625 64.515625 
Q 19.53125 74.21875 31.78125 74.21875 
z
" id="DejaVuSans-30"/>
      </defs>
      <g transform="translate(207.275 161.497656)scale(0.1 -0.1)">
       <use xlink:href="#DejaVuSans-30"/>
      </g>
     </g>
    </g>
    <g id="text_4">
     <!-- x1 -->
     <defs>
      <path d="M 54.890625 54.6875 
L 35.109375 28.078125 
L 55.90625 0 
L 45.3125 0 
L 29.390625 21.484375 
L 13.484375 0 
L 2.875 0 
L 24.125 28.609375 
L 4.6875 54.6875 
L 15.28125 54.6875 
L 29.78125 35.203125 
L 44.28125 54.6875 
z
" id="DejaVuSans-78"/>
      <path d="M 12.40625 8.296875 
L 28.515625 8.296875 
L 28.515625 63.921875 
L 10.984375 60.40625 
L 10.984375 69.390625 
L 28.421875 72.90625 
L 38.28125 72.90625 
L 38.28125 8.296875 
L 54.390625 8.296875 
L 54.390625 0 
L 12.40625 0 
z
" id="DejaVuSans-31"/>
     </defs>
     <g transform="translate(134.129687 175.175781)scale(0.1 -0.1)">
      <use xlink:href="#DejaVuSans-78"/>
      <use x="59.179688" xlink:href="#DejaVuSans-31"/>
     </g>
    </g>
   </g>
   <g id="matplotlib.axis_2">
    <g id="ytick_1">
     <g id="line2d_4">
      <defs>
       <path d="M 0 0 
L -3.5 0 
" id="me7bfc9810a" style="stroke:#000000;stroke-width:0.8;"/>
      </defs>
      <g>
       <use style="stroke:#000000;stroke-width:0.8;" x="42.620312" xlink:href="#me7bfc9810a" y="146.899219"/>
      </g>
     </g>
     <g id="text_5">
      <!-- −3 -->
      <defs>
       <path d="M 40.578125 39.3125 
Q 47.65625 37.796875 51.625 33 
Q 55.609375 28.21875 55.609375 21.1875 
Q 55.609375 10.40625 48.1875 4.484375 
Q 40.765625 -1.421875 27.09375 -1.421875 
Q 22.515625 -1.421875 17.65625 -0.515625 
Q 12.796875 0.390625 7.625 2.203125 
L 7.625 11.71875 
Q 11.71875 9.328125 16.59375 8.109375 
Q 21.484375 6.890625 26.8125 6.890625 
Q 36.078125 6.890625 40.9375 10.546875 
Q 45.796875 14.203125 45.796875 21.1875 
Q 45.796875 27.640625 41.28125 31.265625 
Q 36.765625 34.90625 28.71875 34.90625 
L 20.21875 34.90625 
L 20.21875 43.015625 
L 29.109375 43.015625 
Q 36.375 43.015625 40.234375 45.921875 
Q 44.09375 48.828125 44.09375 54.296875 
Q 44.09375 59.90625 40.109375 62.90625 
Q 36.140625 65.921875 28.71875 65.921875 
Q 24.65625 65.921875 20.015625 65.03125 
Q 15.375 64.15625 9.8125 62.3125 
L 9.8125 71.09375 
Q 15.4375 72.65625 20.34375 73.4375 
Q 25.25 74.21875 29.59375 74.21875 
Q 40.828125 74.21875 47.359375 69.109375 
Q 53.90625 64.015625 53.90625 55.328125 
Q 53.90625 49.265625 50.4375 45.09375 
Q 46.96875 40.921875 40.578125 39.3125 
z
" id="DejaVuSans-33"/>
      </defs>
      <g transform="translate(20.878125 150.698437)scale(0.1 -0.1)">
       <use xlink:href="#DejaVuSans-2212"/>
       <use x="83.789062" xlink:href="#DejaVuSans-33"/>
      </g>
     </g>
    </g>
    <g id="ytick_2">
     <g id="line2d_5">
      <g>
       <use style="stroke:#000000;stroke-width:0.8;" x="42.620312" xlink:href="#me7bfc9810a" y="112.924219"/>
      </g>
     </g>
     <g id="text_6">
      <!-- −2 -->
      <g transform="translate(20.878125 116.723437)scale(0.1 -0.1)">
       <use xlink:href="#DejaVuSans-2212"/>
       <use x="83.789062" xlink:href="#DejaVuSans-32"/>
      </g>
     </g>
    </g>
    <g id="ytick_3">
     <g id="line2d_6">
      <g>
       <use style="stroke:#000000;stroke-width:0.8;" x="42.620312" xlink:href="#me7bfc9810a" y="78.949219"/>
      </g>
     </g>
     <g id="text_7">
      <!-- −1 -->
      <g transform="translate(20.878125 82.748437)scale(0.1 -0.1)">
       <use xlink:href="#DejaVuSans-2212"/>
       <use x="83.789062" xlink:href="#DejaVuSans-31"/>
      </g>
     </g>
    </g>
    <g id="ytick_4">
     <g id="line2d_7">
      <g>
       <use style="stroke:#000000;stroke-width:0.8;" x="42.620312" xlink:href="#me7bfc9810a" y="44.974219"/>
      </g>
     </g>
     <g id="text_8">
      <!-- 0 -->
      <g transform="translate(29.257812 48.773437)scale(0.1 -0.1)">
       <use xlink:href="#DejaVuSans-30"/>
      </g>
     </g>
    </g>
    <g id="ytick_5">
     <g id="line2d_8">
      <g>
       <use style="stroke:#000000;stroke-width:0.8;" x="42.620312" xlink:href="#me7bfc9810a" y="10.999219"/>
      </g>
     </g>
     <g id="text_9">
      <!-- 1 -->
      <g transform="translate(29.257812 14.798437)scale(0.1 -0.1)">
       <use xlink:href="#DejaVuSans-31"/>
      </g>
     </g>
    </g>
    <g id="text_10">
     <!-- x2 -->
     <g transform="translate(14.798437 85.089844)rotate(-90)scale(0.1 -0.1)">
      <use xlink:href="#DejaVuSans-78"/>
      <use x="59.179688" xlink:href="#DejaVuSans-32"/>
     </g>
    </g>
   </g>
   <g id="LineCollection_1">
    <path clip-path="url(#p6d65bb1c4c)" d="M 237.920313 86.009224 
L 234.86875 86.124739 
L 231.817188 86.226664 
L 228.765625 86.314999 
L 225.714063 86.389744 
L 222.6625 86.450899 
L 219.610938 86.498464 
L 216.559375 86.532439 
L 213.507813 86.552824 
L 210.45625 86.559619 
L 207.404688 86.552824 
L 204.353125 86.532439 
L 201.301563 86.498464 
L 198.25 86.450899 
L 195.198438 86.389744 
L 192.146875 86.314999 
L 189.095313 86.226664 
L 186.04375 86.124739 
L 182.992188 86.009224 
L 179.940625 85.880119 
L 177.034375 85.744219 
L 176.889063 85.736833 
L 173.8375 85.566958 
L 170.785938 85.382311 
L 167.734375 85.182893 
L 164.682813 84.968702 
L 161.63125 84.73974 
L 158.579688 84.496007 
L 155.528125 84.237501 
L 152.476563 83.964224 
L 149.425 83.676175 
L 146.373438 83.373355 
L 143.321875 83.055762 
L 140.270313 82.723398 
L 137.21875 82.376262 
L 136.969643 82.346719 
L 134.167188 81.982701 
L 131.115625 81.570147 
L 128.064063 81.141415 
L 125.0125 80.696504 
L 121.960938 80.235415 
L 118.909375 79.758147 
L 115.857813 79.264701 
L 113.96875 78.949219 
L 112.80625 78.73464 
L 109.754688 78.153488 
L 106.703125 77.554456 
L 103.651563 76.937541 
L 100.6 76.302745 
L 97.548438 75.650067 
L 97.100875 75.551719 
L 94.496875 74.912189 
L 91.445313 74.142756 
L 88.39375 73.353336 
L 85.342188 72.543932 
L 83.908321 72.154219 
L 82.290625 71.655919 
L 79.239063 70.693294 
L 76.1875 69.708019 
L 73.307374 68.756719 
L 73.135938 68.691382 
L 70.084375 67.502257 
L 67.032813 66.286998 
L 64.752171 65.359219 
L 63.98125 64.988582 
L 60.929688 63.490594 
L 57.878125 61.961719 
L 57.878125 61.961719 
L 54.826563 60.055344 
L 52.486044 58.564219 
L 51.775 57.98179 
L 48.723438 55.433665 
L 48.409725 55.166719 
L 45.671875 51.905119 
L 45.559891 51.769219 
L 43.880132 48.371719 
L 43.320212 44.974219 
L 43.880132 41.576719 
L 45.559891 38.179219 
L 45.671875 38.043319 
L 48.409725 34.781719 
L 48.723438 34.514772 
L 51.775 31.966647 
L 52.486044 31.384219 
L 54.826563 29.893094 
L 57.878125 27.986719 
L 57.878125 27.986719 
L 60.929688 26.457844 
L 63.98125 24.959855 
L 64.752171 24.589219 
L 67.032813 23.66144 
L 70.084375 22.44618 
L 73.135938 21.257055 
L 73.307374 21.191719 
L 76.1875 20.240419 
L 79.239063 19.255144 
L 82.290625 18.292519 
L 83.908321 17.794219 
L 85.342188 17.404506 
L 88.39375 16.595101 
L 91.445313 15.805682 
L 94.496875 15.036248 
L 97.100875 14.396719 
L 97.548438 14.29837 
L 100.6 13.645692 
L 103.651563 13.010896 
L 106.703125 12.393982 
L 109.754688 11.794949 
L 112.80625 11.213798 
L 113.96875 10.999219 
" style="fill:none;stroke:#1f77b4;stroke-width:1.5;"/>
   </g>
   <g id="LineCollection_2">
    <path clip-path="url(#p6d65bb1c4c)" d="M 237.920313 103.406365 
L 234.86875 103.488876 
L 231.817188 103.561679 
L 228.765625 103.624776 
L 225.714063 103.678165 
L 222.6625 103.721847 
L 219.610938 103.755822 
L 216.559375 103.78009 
L 213.507813 103.794651 
L 210.45625 103.799504 
L 207.404688 103.794651 
L 204.353125 103.78009 
L 201.301563 103.755822 
L 198.25 103.721847 
L 195.198438 103.678165 
L 192.146875 103.624776 
L 189.095313 103.561679 
L 186.04375 103.488876 
L 182.992188 103.406365 
L 179.940625 103.314147 
L 176.889063 103.212222 
L 173.8375 103.10059 
L 170.785938 102.979251 
L 167.734375 102.848204 
L 165.208944 102.731719 
L 164.682813 102.70598 
L 161.63125 102.546401 
L 158.579688 102.376526 
L 155.528125 102.196355 
L 152.476563 102.005889 
L 149.425 101.805128 
L 146.373438 101.594071 
L 143.321875 101.372719 
L 140.270313 101.141071 
L 137.21875 100.899128 
L 134.167188 100.646889 
L 131.115625 100.384355 
L 128.064063 100.111526 
L 125.0125 99.828401 
L 121.960938 99.53498 
L 119.943803 99.334219 
L 118.909375 99.224622 
L 115.857813 98.890352 
L 112.80625 98.545122 
L 109.754688 98.188932 
L 106.703125 97.821783 
L 103.651563 97.443674 
L 100.6 97.054606 
L 97.548438 96.654578 
L 94.496875 96.24359 
L 92.277557 95.936719 
L 91.445313 95.813706 
L 88.39375 95.350943 
L 85.342188 94.876464 
L 82.290625 94.39027 
L 79.239063 93.892361 
L 76.1875 93.382736 
L 73.135938 92.861395 
L 71.291587 92.539219 
L 70.084375 92.312719 
L 67.032813 91.727594 
L 63.98125 91.129885 
L 60.929688 90.519594 
L 57.878125 89.896719 
L 54.826563 89.26126 
L 54.263653 89.141719 
L 51.775 88.570939 
L 48.723438 87.857464 
L 45.671875 87.130399 
L 42.620313 86.389744 
" style="fill:none;stroke:#1f77b4;stroke-width:1.5;"/>
   </g>
   <g id="LineCollection_3">
    <path clip-path="url(#p6d65bb1c4c)" d="M 237.920313 116.712826 
L 234.86875 116.779986 
L 231.817188 116.839245 
L 228.765625 116.890602 
L 225.714063 116.934059 
L 222.6625 116.969614 
L 219.610938 116.997268 
L 216.559375 117.017021 
L 213.507813 117.028873 
L 210.45625 117.032823 
L 207.404688 117.028873 
L 204.353125 117.017021 
L 201.301563 116.997268 
L 198.25 116.969614 
L 195.198438 116.934059 
L 192.146875 116.890602 
L 189.095313 116.839245 
L 186.04375 116.779986 
L 182.992188 116.712826 
L 179.940625 116.637765 
L 176.889063 116.554803 
L 173.8375 116.46394 
L 170.785938 116.365175 
L 169.542708 116.321719 
L 167.734375 116.255426 
L 164.682813 116.135271 
L 161.63125 116.006829 
L 158.579688 115.8701 
L 155.528125 115.725085 
L 152.476563 115.571783 
L 149.425 115.410194 
L 146.373438 115.240319 
L 143.321875 115.062158 
L 140.270313 114.87571 
L 137.21875 114.680975 
L 134.167188 114.477954 
L 131.115625 114.266646 
L 128.064063 114.047051 
L 125.0125 113.81917 
L 121.960938 113.583002 
L 118.909375 113.338548 
L 115.857813 113.085807 
L 113.96875 112.924219 
L 112.80625 112.81968 
L 109.754688 112.536555 
L 106.703125 112.244719 
L 103.651563 111.944171 
L 100.6 111.634911 
L 97.548438 111.31694 
L 94.496875 110.990257 
L 91.445313 110.654863 
L 88.39375 110.310757 
L 85.342188 109.95794 
L 82.290625 109.596411 
L 81.716213 109.526719 
L 79.239063 109.209925 
L 76.1875 108.810489 
L 73.135938 108.401871 
L 70.084375 107.98407 
L 67.032813 107.557087 
L 63.98125 107.120921 
L 60.929688 106.675573 
L 57.878125 106.221043 
L 57.273855 106.129219 
L 54.826563 105.736079 
L 51.775 105.236162 
L 48.723438 104.726537 
L 45.671875 104.207204 
L 42.620313 103.678165 
" style="fill:none;stroke:#1f77b4;stroke-width:1.5;"/>
   </g>
   <g id="LineCollection_4">
    <path clip-path="url(#p6d65bb1c4c)" d="M 237.920313 127.897487 
L 234.86875 127.956423 
L 231.817188 128.008425 
L 228.765625 128.053494 
L 225.714063 128.091629 
L 222.6625 128.122831 
L 219.610938 128.147099 
L 216.559375 128.164433 
L 213.507813 128.174834 
L 210.45625 128.1783 
L 207.404688 128.174834 
L 204.353125 128.164433 
L 201.301563 128.147099 
L 198.25 128.122831 
L 195.198438 128.091629 
L 192.146875 128.053494 
L 189.095313 128.008425 
L 186.04375 127.956423 
L 182.992188 127.897487 
L 179.940625 127.831617 
L 176.889063 127.758813 
L 173.8375 127.679076 
L 170.785938 127.592405 
L 167.734375 127.4988 
L 164.682813 127.398262 
L 161.63125 127.29079 
L 158.579688 127.176385 
L 155.528125 127.055045 
L 152.476563 126.926772 
L 149.425 126.791566 
L 146.373438 126.649425 
L 143.605741 126.514219 
L 143.321875 126.499761 
L 140.270313 126.337115 
L 137.21875 126.16724 
L 134.167188 125.990136 
L 131.115625 125.805804 
L 128.064063 125.614243 
L 125.0125 125.415453 
L 121.960938 125.209434 
L 118.909375 124.996187 
L 115.857813 124.775711 
L 112.80625 124.548006 
L 109.754688 124.313072 
L 106.703125 124.07091 
L 103.651563 123.821519 
L 100.6 123.5649 
L 97.548438 123.301051 
L 95.473375 123.116719 
L 94.496875 123.026119 
L 91.445313 122.735444 
L 88.39375 122.437219 
L 85.342188 122.131444 
L 82.290625 121.818119 
L 79.239063 121.497244 
L 76.1875 121.168819 
L 73.135938 120.832844 
L 70.084375 120.489319 
L 67.032813 120.138244 
L 63.98125 119.779619 
L 63.477899 119.719219 
L 60.929688 119.399222 
L 57.878125 119.008114 
L 54.826563 118.609105 
L 51.775 118.202195 
L 48.723438 117.787384 
L 45.671875 117.364672 
L 42.620313 116.934059 
" style="fill:none;stroke:#1f77b4;stroke-width:1.5;"/>
   </g>
   <g id="LineCollection_5">
    <path clip-path="url(#p6d65bb1c4c)" d="M 237.920313 137.753766 
L 234.86875 137.806273 
L 231.817188 137.852603 
L 228.765625 137.892755 
L 225.714063 137.92673 
L 222.6625 137.954528 
L 219.610938 137.976148 
L 216.559375 137.991591 
L 213.507813 138.000857 
L 210.45625 138.003946 
L 207.404688 138.000857 
L 204.353125 137.991591 
L 201.301563 137.976148 
L 198.25 137.954528 
L 195.198438 137.92673 
L 192.146875 137.892755 
L 189.095313 137.852603 
L 186.04375 137.806273 
L 182.992188 137.753766 
L 179.940625 137.695082 
L 176.889063 137.630221 
L 173.8375 137.559182 
L 170.785938 137.481966 
L 167.734375 137.398573 
L 164.682813 137.309003 
L 161.63125 137.213255 
L 158.579688 137.11133 
L 155.528125 137.003228 
L 152.476563 136.888948 
L 149.425 136.768491 
L 147.936433 136.706719 
L 146.373438 136.63941 
L 143.321875 136.501587 
L 140.270313 136.357353 
L 137.21875 136.206709 
L 134.167188 136.049655 
L 131.115625 135.88619 
L 128.064063 135.716315 
L 125.0125 135.54003 
L 121.960938 135.357334 
L 118.909375 135.168228 
L 115.857813 134.972712 
L 112.80625 134.770785 
L 109.754688 134.562448 
L 106.703125 134.3477 
L 103.651563 134.126542 
L 100.6 133.898973 
L 97.548438 133.664995 
L 94.496875 133.424606 
L 93.07017 133.309219 
L 91.445313 133.172653 
L 88.39375 132.909513 
L 85.342188 132.639711 
L 82.290625 132.363248 
L 79.239063 132.080123 
L 76.1875 131.790336 
L 73.135938 131.493888 
L 70.084375 131.190778 
L 67.032813 130.881006 
L 63.98125 130.564572 
L 60.929688 130.241476 
L 57.878125 129.911719 
L 57.878125 129.911719 
L 54.826563 129.561568 
L 51.775 129.204484 
L 48.723438 128.840466 
L 45.671875 128.469515 
L 42.620313 128.091629 
" style="fill:none;stroke:#1f77b4;stroke-width:1.5;"/>
   </g>
   <g id="LineCollection_6">
    <path clip-path="url(#p6d65bb1c4c)" d="M 210.45625 146.899219 
L 207.404688 146.89634 
L 204.353125 146.887702 
L 201.301563 146.873306 
L 198.25 146.853151 
L 195.198438 146.827238 
L 192.146875 146.795566 
L 189.095313 146.758136 
L 186.04375 146.714948 
L 182.992188 146.666001 
L 179.940625 146.611295 
L 176.889063 146.550831 
L 173.8375 146.484609 
L 170.785938 146.412628 
L 167.734375 146.334888 
L 164.682813 146.25139 
L 161.63125 146.162134 
L 158.579688 146.067119 
L 155.528125 145.966346 
L 152.476563 145.859814 
L 149.425 145.747524 
L 146.373438 145.629475 
L 143.321875 145.505668 
L 140.270313 145.376102 
L 137.21875 145.240778 
L 134.167188 145.099695 
L 131.115625 144.952854 
L 128.064063 144.800255 
L 125.0125 144.641897 
L 121.960938 144.47778 
L 118.909375 144.307905 
L 115.857813 144.132272 
L 112.80625 143.95088 
L 109.754688 143.763729 
L 106.703125 143.57082 
L 105.641712 143.501719 
L 103.651563 143.367607 
L 100.6 143.156008 
L 97.548438 142.938449 
L 94.496875 142.714929 
L 91.445313 142.485449 
L 88.39375 142.250008 
L 85.342188 142.008607 
L 82.290625 141.761245 
L 79.239063 141.507923 
L 76.1875 141.24864 
L 73.135938 140.983396 
L 70.084375 140.712192 
L 67.032813 140.435028 
L 63.98125 140.151903 
L 63.477899 140.104219 
L 60.929688 139.854039 
L 57.878125 139.548264 
L 54.826563 139.236312 
L 51.775 138.918182 
L 48.723438 138.593876 
L 45.671875 138.263391 
L 42.620313 137.92673 
" style="fill:none;stroke:#1f77b4;stroke-width:1.5;"/>
    <path clip-path="url(#p6d65bb1c4c)" d="M 237.920313 146.666001 
L 234.86875 146.714948 
L 231.817188 146.758136 
L 228.765625 146.795566 
L 225.714063 146.827238 
L 222.6625 146.853151 
L 219.610938 146.873306 
L 216.559375 146.887702 
L 213.507813 146.89634 
L 210.45625 146.899219 
" style="fill:none;stroke:#1f77b4;stroke-width:1.5;"/>
   </g>
   <g id="LineCollection_7">
    <path clip-path="url(#p6d65bb1c4c)" d="M 43.320212 146.899219 
L 42.620313 146.827238 
" style="fill:none;stroke:#1f77b4;stroke-width:1.5;"/>
   </g>
   <g id="line2d_9">
    <path clip-path="url(#p6d65bb1c4c)" d="M 57.878125 112.924219 
L 96.477484 69.948869 
L 120.357142 54.42355 
L 138.043261 48.294977 
L 152.011133 46.027885 
L 163.368487 45.269751 
L 172.726061 45.04561 
L 180.468975 44.988536 
L 186.866078 44.976471 
L 192.121325 44.97447 
L 196.40025 44.974235 
L 199.844228 44.974219 
L 202.578131 44.974219 
L 204.714223 44.974219 
L 206.353865 44.974219 
L 207.588039 44.974219 
L 208.497343 44.974219 
L 209.15187 44.974219 
L 209.611243 44.974219 
L 209.924922 44.974219 
L 210.132825 44.974219 
" style="fill:none;stroke:#ff7f0e;stroke-linecap:square;stroke-width:1.5;"/>
    <defs>
     <path d="M 0 3 
C 0.795609 3 1.55874 2.683901 2.12132 2.12132 
C 2.683901 1.55874 3 0.795609 3 0 
C 3 -0.795609 2.683901 -1.55874 2.12132 -2.12132 
C 1.55874 -2.683901 0.795609 -3 0 -3 
C -0.795609 -3 -1.55874 -2.683901 -2.12132 -2.12132 
C -2.683901 -1.55874 -3 -0.795609 -3 0 
C -3 0.795609 -2.683901 1.55874 -2.12132 2.12132 
C -1.55874 2.683901 -0.795609 3 0 3 
z
" id="mf50373181b" style="stroke:#ff7f0e;"/>
    </defs>
    <g clip-path="url(#p6d65bb1c4c)">
     <use style="fill:#ff7f0e;stroke:#ff7f0e;" x="57.878125" xlink:href="#mf50373181b" y="112.924219"/>
     <use style="fill:#ff7f0e;stroke:#ff7f0e;" x="96.477484" xlink:href="#mf50373181b" y="69.948869"/>
     <use style="fill:#ff7f0e;stroke:#ff7f0e;" x="120.357142" xlink:href="#mf50373181b" y="54.42355"/>
     <use style="fill:#ff7f0e;stroke:#ff7f0e;" x="138.043261" xlink:href="#mf50373181b" y="48.294977"/>
     <use style="fill:#ff7f0e;stroke:#ff7f0e;" x="152.011133" xlink:href="#mf50373181b" y="46.027885"/>
     <use style="fill:#ff7f0e;stroke:#ff7f0e;" x="163.368487" xlink:href="#mf50373181b" y="45.269751"/>
     <use style="fill:#ff7f0e;stroke:#ff7f0e;" x="172.726061" xlink:href="#mf50373181b" y="45.04561"/>
     <use style="fill:#ff7f0e;stroke:#ff7f0e;" x="180.468975" xlink:href="#mf50373181b" y="44.988536"/>
     <use style="fill:#ff7f0e;stroke:#ff7f0e;" x="186.866078" xlink:href="#mf50373181b" y="44.976471"/>
     <use style="fill:#ff7f0e;stroke:#ff7f0e;" x="192.121325" xlink:href="#mf50373181b" y="44.97447"/>
     <use style="fill:#ff7f0e;stroke:#ff7f0e;" x="196.40025" xlink:href="#mf50373181b" y="44.974235"/>
     <use style="fill:#ff7f0e;stroke:#ff7f0e;" x="199.844228" xlink:href="#mf50373181b" y="44.974219"/>
     <use style="fill:#ff7f0e;stroke:#ff7f0e;" x="202.578131" xlink:href="#mf50373181b" y="44.974219"/>
     <use style="fill:#ff7f0e;stroke:#ff7f0e;" x="204.714223" xlink:href="#mf50373181b" y="44.974219"/>
     <use style="fill:#ff7f0e;stroke:#ff7f0e;" x="206.353865" xlink:href="#mf50373181b" y="44.974219"/>
     <use style="fill:#ff7f0e;stroke:#ff7f0e;" x="207.588039" xlink:href="#mf50373181b" y="44.974219"/>
     <use style="fill:#ff7f0e;stroke:#ff7f0e;" x="208.497343" xlink:href="#mf50373181b" y="44.974219"/>
     <use style="fill:#ff7f0e;stroke:#ff7f0e;" x="209.15187" xlink:href="#mf50373181b" y="44.974219"/>
     <use style="fill:#ff7f0e;stroke:#ff7f0e;" x="209.611243" xlink:href="#mf50373181b" y="44.974219"/>
     <use style="fill:#ff7f0e;stroke:#ff7f0e;" x="209.924922" xlink:href="#mf50373181b" y="44.974219"/>
     <use style="fill:#ff7f0e;stroke:#ff7f0e;" x="210.132825" xlink:href="#mf50373181b" y="44.974219"/>
    </g>
   </g>
   <g id="patch_3">
    <path d="M 42.620312 146.899219 
L 42.620312 10.999219 
" style="fill:none;stroke:#000000;stroke-linecap:square;stroke-linejoin:miter;stroke-width:0.8;"/>
   </g>
   <g id="patch_4">
    <path d="M 237.920313 146.899219 
L 237.920313 10.999219 
" style="fill:none;stroke:#000000;stroke-linecap:square;stroke-linejoin:miter;stroke-width:0.8;"/>
   </g>
   <g id="patch_5">
    <path d="M 42.620313 146.899219 
L 237.920313 146.899219 
" style="fill:none;stroke:#000000;stroke-linecap:square;stroke-linejoin:miter;stroke-width:0.8;"/>
   </g>
   <g id="patch_6">
    <path d="M 42.620313 10.999219 
L 237.920313 10.999219 
" style="fill:none;stroke:#000000;stroke-linecap:square;stroke-linejoin:miter;stroke-width:0.8;"/>
   </g>
  </g>
 </g>
 <defs>
  <clipPath id="p6d65bb1c4c">
   <rect height="135.9" width="195.3" x="42.620312" y="10.999219"/>
  </clipPath>
 </defs>
</svg>
